<?xml version="1.0" encoding="UTF-8"?>
<!DOCTYPE svg PUBLIC "-//W3C//DTD SVG 1.1//EN" "http://www.w3.org/Graphics/SVG/1.1/DTD/svg11.dtd">
<svg xmlns="http://www.w3.org/2000/svg" version="1.1" width="123px" height="148px" style="shape-rendering:geometricPrecision; text-rendering:geometricPrecision; image-rendering:optimizeQuality; fill-rule:evenodd; clip-rule:evenodd" xmlns:xlink="http://www.w3.org/1999/xlink">
<g><path style="opacity:0.165" fill="#eefddd" d="M 62.5,14.5 C 69.2638,12.5933 75.5972,13.5933 81.5,17.5C 78.1226,17.0405 74.7893,16.3739 71.5,15.5C 71.1667,15.5 70.8333,15.5 70.5,15.5C 68.0521,14.5269 65.3854,14.1936 62.5,14.5 Z"/></g>
<g><path style="opacity:1" fill="#7ad844" d="M 74.5,18.5 C 74.6107,19.1174 74.944,19.6174 75.5,20C 73.26,20.977 70.9267,21.477 68.5,21.5C 67.5,21.5 66.5,21.5 65.5,21.5C 65.5,19.8333 65.5,18.1667 65.5,16.5C 68.7387,16.4129 71.7387,17.0795 74.5,18.5 Z"/></g>
<g><path style="opacity:1" fill="#81d053" d="M 70.5,15.5 C 70.8333,15.5 71.1667,15.5 71.5,15.5C 72.5903,16.8571 73.9236,17.8571 75.5,18.5C 75.1667,18.5 74.8333,18.5 74.5,18.5C 71.7387,17.0795 68.7387,16.4129 65.5,16.5C 65.5,18.1667 65.5,19.8333 65.5,21.5C 66.5,21.5 67.5,21.5 68.5,21.5C 68.5,21.8333 68.5,22.1667 68.5,22.5C 67.8333,22.5 67.1667,22.5 66.5,22.5C 65.5041,22.5858 64.6708,22.2524 64,21.5C 62.7201,16.079 64.8868,14.079 70.5,15.5 Z"/></g>
<g><path style="opacity:0.831" fill="#9fce82" d="M 62.5,14.5 C 65.3854,14.1936 68.0521,14.5269 70.5,15.5C 64.8868,14.079 62.7201,16.079 64,21.5C 64.6708,22.2524 65.5041,22.5858 66.5,22.5C 66.5,22.8333 66.5,23.1667 66.5,23.5C 65.1667,23.5 63.8333,23.5 62.5,23.5C 62.5,20.5 62.5,17.5 62.5,14.5 Z"/></g>
<g><path style="opacity:0.125" fill="#edfee0" d="M 81.5,18.5 C 81.5,18.1667 81.5,17.8333 81.5,17.5C 83.5529,17.4021 85.2196,18.0687 86.5,19.5C 84.7839,19.3713 83.1172,19.038 81.5,18.5 Z"/></g>
<g><path style="opacity:1" fill="#7dd04c" d="M 74.5,18.5 C 74.8333,18.5 75.1667,18.5 75.5,18.5C 78.089,18.461 80.089,19.461 81.5,21.5C 82.045,23.3694 82.045,25.0361 81.5,26.5C 80.0047,26.5852 79.0047,25.9185 78.5,24.5C 75.2121,23.5547 71.8788,22.888 68.5,22.5C 68.5,22.1667 68.5,21.8333 68.5,21.5C 70.9267,21.477 73.26,20.977 75.5,20C 74.944,19.6174 74.6107,19.1174 74.5,18.5 Z"/></g>
<g><path style="opacity:1" fill="#85cc5d" d="M 71.5,15.5 C 74.7893,16.3739 78.1226,17.0405 81.5,17.5C 81.5,17.8333 81.5,18.1667 81.5,18.5C 82.0998,19.8999 83.0998,20.8999 84.5,21.5C 83.5,21.5 82.5,21.5 81.5,21.5C 80.089,19.461 78.089,18.461 75.5,18.5C 73.9236,17.8571 72.5903,16.8571 71.5,15.5 Z"/></g>
<g><path style="opacity:0.976" fill="#98ce7a" d="M 81.5,18.5 C 83.1172,19.038 84.7839,19.3713 86.5,19.5C 86.9731,20.9063 87.9731,21.573 89.5,21.5C 89.8333,22.1667 90.1667,22.8333 90.5,23.5C 88.4214,23.0293 86.4214,22.3627 84.5,21.5C 83.0998,20.8999 82.0998,19.8999 81.5,18.5 Z"/></g>
<g><path style="opacity:0.106" fill="#f4fce6" d="M 86.5,19.5 C 88.0269,19.427 89.0269,20.0937 89.5,21.5C 87.9731,21.573 86.9731,20.9063 86.5,19.5 Z"/></g>
<g><path style="opacity:1" fill="#7cd148" d="M 81.5,21.5 C 82.5,21.5 83.5,21.5 84.5,21.5C 84.8807,22.9311 85.8807,23.7645 87.5,24C 85.5483,24.3661 83.8816,25.1995 82.5,26.5C 82.1667,26.5 81.8333,26.5 81.5,26.5C 82.045,25.0361 82.045,23.3694 81.5,21.5 Z"/></g>
<g><path style="opacity:0.278" fill="#f4ffea" d="M 62.5,14.5 C 62.5,17.5 62.5,20.5 62.5,23.5C 63.8333,23.5 65.1667,23.5 66.5,23.5C 67.9187,24.4511 69.5853,24.7845 71.5,24.5C 73.0725,25.6873 74.7392,26.6873 76.5,27.5C 71.9605,26.1805 67.2938,25.3471 62.5,25C 60.4963,22.1592 59.9963,18.9926 61,15.5C 61.3826,14.944 61.8826,14.6107 62.5,14.5 Z"/></g>
<g><path style="opacity:1" fill="#88cc60" d="M 66.5,22.5 C 67.1667,22.5 67.8333,22.5 68.5,22.5C 71.8788,22.888 75.2121,23.5547 78.5,24.5C 79.0047,25.9185 80.0047,26.5852 81.5,26.5C 81.8333,26.5 82.1667,26.5 82.5,26.5C 84.2294,27.2362 85.2294,28.5695 85.5,30.5C 84.1667,30.1667 82.8333,29.8333 81.5,29.5C 81.0269,28.0937 80.0269,27.427 78.5,27.5C 76.8243,25.1663 74.491,24.1663 71.5,24.5C 69.5853,24.7845 67.9187,24.4511 66.5,23.5C 66.5,23.1667 66.5,22.8333 66.5,22.5 Z"/></g>
<g><path style="opacity:0.996" fill="#addb8d" d="M 71.5,24.5 C 74.491,24.1663 76.8243,25.1663 78.5,27.5C 77.8333,27.5 77.1667,27.5 76.5,27.5C 74.7392,26.6873 73.0725,25.6873 71.5,24.5 Z"/></g>
<g><path style="opacity:1" fill="#7fcf50" d="M 84.5,21.5 C 86.4214,22.3627 88.4214,23.0293 90.5,23.5C 90.8333,23.5 91.1667,23.5 91.5,23.5C 91.5569,24.609 91.8902,25.609 92.5,26.5C 91.1667,26.5 89.8333,26.5 88.5,26.5C 88.5,27.8333 88.5,29.1667 88.5,30.5C 87.5,30.5 86.5,30.5 85.5,30.5C 85.2294,28.5695 84.2294,27.2362 82.5,26.5C 83.8816,25.1995 85.5483,24.3661 87.5,24C 85.8807,23.7645 84.8807,22.9311 84.5,21.5 Z"/></g>
<g><path style="opacity:1" fill="#95ca74" d="M 91.5,23.5 C 93.9095,24.7007 95.9095,26.3674 97.5,28.5C 95.9382,28.2671 94.6049,27.6005 93.5,26.5C 93.1667,26.5 92.8333,26.5 92.5,26.5C 91.8902,25.609 91.5569,24.609 91.5,23.5 Z"/></g>
<g><path style="opacity:0.173" fill="#f0fddf" d="M 89.5,21.5 C 94.0609,22.9462 97.7276,25.6129 100.5,29.5C 99.391,29.4431 98.391,29.1098 97.5,28.5C 95.9095,26.3674 93.9095,24.7007 91.5,23.5C 91.1667,23.5 90.8333,23.5 90.5,23.5C 90.1667,22.8333 89.8333,22.1667 89.5,21.5 Z"/></g>
<g><path style="opacity:0.506" fill="#ebfad8" d="M 76.5,27.5 C 77.1667,27.5 77.8333,27.5 78.5,27.5C 80.0269,27.427 81.0269,28.0937 81.5,29.5C 79.4471,29.5979 77.7804,28.9313 76.5,27.5 Z"/></g>
<g><path style="opacity:0.027" fill="#fbfef5" d="M 70.5,29.5 C 67.8333,29.5 65.1667,29.5 62.5,29.5C 62.2529,32.9387 62.5863,36.272 63.5,39.5C 62.5041,39.5858 61.6708,39.2524 61,38.5C 60.3333,35.5 60.3333,32.5 61,29.5C 64.2072,26.9006 67.3739,26.9006 70.5,29.5 Z"/></g>
<g><path style="opacity:1" fill="#7bd246" d="M 92.5,26.5 C 92.8333,26.5 93.1667,26.5 93.5,26.5C 94.2045,30.4713 92.8711,31.8046 89.5,30.5C 89.1667,30.5 88.8333,30.5 88.5,30.5C 88.5,29.1667 88.5,27.8333 88.5,26.5C 89.8333,26.5 91.1667,26.5 92.5,26.5 Z"/></g>
<g><path style="opacity:0.839" fill="#b6d99f" d="M 70.5,29.5 C 72.099,29.2322 73.4324,29.5655 74.5,30.5C 70.8936,30.2108 67.3936,30.5442 64,31.5C 62.2871,36.1991 63.7871,38.5324 68.5,38.5C 68.5,38.8333 68.5,39.1667 68.5,39.5C 67.1667,39.5 65.8333,39.5 64.5,39.5C 64.1667,39.5 63.8333,39.5 63.5,39.5C 62.5863,36.272 62.2529,32.9387 62.5,29.5C 65.1667,29.5 67.8333,29.5 70.5,29.5 Z"/></g>
<g><path style="opacity:1" fill="#7dd050" d="M 93.5,26.5 C 94.6049,27.6005 95.9382,28.2671 97.5,28.5C 97.5569,29.609 97.8902,30.609 98.5,31.5C 96.302,31.1201 94.6354,31.7868 93.5,33.5C 92.8333,33.5 92.1667,33.5 91.5,33.5C 90.8333,32.5 90.1667,31.5 89.5,30.5C 92.8711,31.8046 94.2045,30.4713 93.5,26.5 Z"/></g>
<g><path style="opacity:0.075" fill="#f8ffe8" d="M 81.5,29.5 C 82.8333,29.8333 84.1667,30.1667 85.5,30.5C 86.1667,31.5 86.8333,32.5 87.5,33.5C 85.1475,32.6597 83.1475,31.3264 81.5,29.5 Z"/></g>
<g><path style="opacity:0.933" fill="#91ca6f" d="M 97.5,28.5 C 98.391,29.1098 99.391,29.4431 100.5,29.5C 101.757,32.4274 103.757,34.7607 106.5,36.5C 106.5,37.1667 106.5,37.8333 106.5,38.5C 104.833,37.1667 103.167,35.8333 101.5,34.5C 100.833,33.1667 99.8333,32.1667 98.5,31.5C 97.8902,30.609 97.5569,29.609 97.5,28.5 Z"/></g>
<g><path style="opacity:0.494" fill="#ebfdd9" d="M 100.5,29.5 C 103.243,31.2393 105.243,33.5726 106.5,36.5C 103.757,34.7607 101.757,32.4274 100.5,29.5 Z"/></g>
<g><path style="opacity:1" fill="#92cf71" d="M 85.5,30.5 C 86.5,30.5 87.5,30.5 88.5,30.5C 88.8333,30.5 89.1667,30.5 89.5,30.5C 90.1667,31.5 90.8333,32.5 91.5,33.5C 91.8333,34.1667 92.1667,34.8333 92.5,35.5C 91.8333,35.5 91.1667,35.5 90.5,35.5C 90.0269,34.0937 89.0269,33.427 87.5,33.5C 86.8333,32.5 86.1667,31.5 85.5,30.5 Z"/></g>
<g><path style="opacity:0.137" fill="#ecfbe3" d="M 74.5,30.5 C 76.9674,30.7549 78.9674,31.7549 80.5,33.5C 78.7839,33.3713 77.1172,33.038 75.5,32.5C 75.1667,32.5 74.8333,32.5 74.5,32.5C 74.5,31.8333 74.5,31.1667 74.5,30.5 Z"/></g>
<g><path style="opacity:0.165" fill="#f5ffec" d="M 87.5,33.5 C 89.0269,33.427 90.0269,34.0937 90.5,35.5C 88.9731,35.573 87.9731,34.9063 87.5,33.5 Z"/></g>
<g><path style="opacity:1" fill="#8bca68" d="M 74.5,30.5 C 74.5,31.1667 74.5,31.8333 74.5,32.5C 71.5071,31.8654 68.5071,31.6987 65.5,32C 63.7447,35.5051 64.7447,37.6718 68.5,38.5C 63.7871,38.5324 62.2871,36.1991 64,31.5C 67.3936,30.5442 70.8936,30.2108 74.5,30.5 Z"/></g>
<g><path style="opacity:1" fill="#7fcf52" d="M 74.5,32.5 C 74.8333,32.5 75.1667,32.5 75.5,32.5C 75.5,33.1667 75.5,33.8333 75.5,34.5C 73.5,34.5 71.5,34.5 69.5,34.5C 69.5,35.5 69.5,36.5 69.5,37.5C 71.698,37.1201 73.3646,37.7868 74.5,39.5C 73.8333,39.5 73.1667,39.5 72.5,39.5C 71.1667,39.5 69.8333,39.5 68.5,39.5C 68.5,39.1667 68.5,38.8333 68.5,38.5C 64.7447,37.6718 63.7447,35.5051 65.5,32C 68.5071,31.6987 71.5071,31.8654 74.5,32.5 Z"/></g>
<g><path style="opacity:1" fill="#91cb6b" d="M 75.5,32.5 C 77.1172,33.038 78.7839,33.3713 80.5,33.5C 81.973,35.3947 83.6397,37.0613 85.5,38.5C 82.3995,36.7711 79.0662,35.4377 75.5,34.5C 75.5,33.8333 75.5,33.1667 75.5,32.5 Z"/></g>
<g><path style="opacity:0.482" fill="#e5f7d9" d="M 90.5,35.5 C 91.1667,35.5 91.8333,35.5 92.5,35.5C 93.1667,36.8333 93.8333,38.1667 94.5,39.5C 92.7356,38.674 91.4023,37.3407 90.5,35.5 Z"/></g>
<g><path style="opacity:1" fill="#7cd249" d="M 98.5,31.5 C 99.8333,32.1667 100.833,33.1667 101.5,34.5C 102.63,36.3146 103.296,38.3146 103.5,40.5C 103.657,41.8734 103.49,43.2068 103,44.5C 102.329,43.7476 101.496,43.4142 100.5,43.5C 100.301,41.0401 99.6348,38.7067 98.5,36.5C 96.8983,37.55 96.065,36.8833 96,34.5C 94.841,35.566 94.0076,35.2327 93.5,33.5C 94.6354,31.7868 96.302,31.1201 98.5,31.5 Z"/></g>
<g><path style="opacity:1" fill="#7dd049" d="M 75.5,34.5 C 76.1667,35.5 76.8333,36.5 77.5,37.5C 78.625,38.6522 78.625,39.6522 77.5,40.5C 76.609,39.8902 75.609,39.5569 74.5,39.5C 73.3646,37.7868 71.698,37.1201 69.5,37.5C 69.5,36.5 69.5,35.5 69.5,34.5C 71.5,34.5 73.5,34.5 75.5,34.5 Z"/></g>
<g><path style="opacity:1" fill="#89cd60" d="M 91.5,33.5 C 92.1667,33.5 92.8333,33.5 93.5,33.5C 94.0076,35.2327 94.841,35.566 96,34.5C 96.065,36.8833 96.8983,37.55 98.5,36.5C 99.6348,38.7067 100.301,41.0401 100.5,43.5C 101.6,44.6049 102.267,45.9382 102.5,47.5C 100.5,45.5 98.5,43.5 96.5,41.5C 96.5,40.1667 95.8333,39.5 94.5,39.5C 93.8333,38.1667 93.1667,36.8333 92.5,35.5C 92.1667,34.8333 91.8333,34.1667 91.5,33.5 Z"/></g>
<g><path style="opacity:1" fill="#7fcd54" d="M 75.5,34.5 C 79.0662,35.4377 82.3995,36.7711 85.5,38.5C 85.8333,38.5 86.1667,38.5 86.5,38.5C 86.5,39.8333 86.5,41.1667 86.5,42.5C 85.596,41.791 85.2627,40.791 85.5,39.5C 82.6915,39.3067 80.0248,38.64 77.5,37.5C 76.8333,36.5 76.1667,35.5 75.5,34.5 Z"/></g>
<g><path style="opacity:0.008" fill="#f4fee8" d="M 80.5,33.5 C 84.7321,35.4002 88.3988,38.0669 91.5,41.5C 89.5887,40.925 87.922,39.925 86.5,38.5C 86.1667,38.5 85.8333,38.5 85.5,38.5C 83.6397,37.0613 81.973,35.3947 80.5,33.5 Z"/></g>
<g><path style="opacity:1" fill="#7dd155" d="M 101.5,34.5 C 103.167,35.8333 104.833,37.1667 106.5,38.5C 106.5,39.8333 106.5,41.1667 106.5,42.5C 105.5,41.8333 104.5,41.1667 103.5,40.5C 103.296,38.3146 102.63,36.3146 101.5,34.5 Z"/></g>
<g><path style="opacity:0.106" fill="#fffef5" d="M 64.5,39.5 C 65.8333,39.5 67.1667,39.5 68.5,39.5C 69.5,40.1667 70.5,40.8333 71.5,41.5C 68.8478,41.5905 66.5145,40.9238 64.5,39.5 Z"/></g>
<g><path style="opacity:0.91" fill="#b4e39a" d="M 68.5,39.5 C 69.8333,39.5 71.1667,39.5 72.5,39.5C 74.0764,40.1429 75.4097,41.1429 76.5,42.5C 75.1667,42.1667 73.8333,41.8333 72.5,41.5C 72.1667,41.5 71.8333,41.5 71.5,41.5C 70.5,40.8333 69.5,40.1667 68.5,39.5 Z"/></g>
<g><path style="opacity:1" fill="#91ce69" d="M 72.5,39.5 C 73.1667,39.5 73.8333,39.5 74.5,39.5C 75.609,39.5569 76.609,39.8902 77.5,40.5C 79.1827,41.8534 80.5161,43.5201 81.5,45.5C 80.8333,45.5 80.1667,45.5 79.5,45.5C 79.0269,44.0937 78.0269,43.427 76.5,43.5C 76.5,43.1667 76.5,42.8333 76.5,42.5C 75.4097,41.1429 74.0764,40.1429 72.5,39.5 Z"/></g>
<g><path style="opacity:0.094" fill="#f1fdde" d="M 94.5,39.5 C 95.8333,39.5 96.5,40.1667 96.5,41.5C 95.1667,41.5 94.5,40.8333 94.5,39.5 Z"/></g>
<g><path style="opacity:1" fill="#7dd04d" d="M 77.5,37.5 C 80.0248,38.64 82.6915,39.3067 85.5,39.5C 85.2627,40.791 85.596,41.791 86.5,42.5C 87.4916,42.3284 88.1583,42.6618 88.5,43.5C 86.0274,43.0882 84.6941,44.0882 84.5,46.5C 83.609,45.8902 82.609,45.5569 81.5,45.5C 80.5161,43.5201 79.1827,41.8534 77.5,40.5C 78.625,39.6522 78.625,38.6522 77.5,37.5 Z"/></g>
<g><path style="opacity:1" fill="#96cc71" d="M 86.5,38.5 C 87.922,39.925 89.5887,40.925 91.5,41.5C 92.1667,43.1667 92.8333,44.8333 93.5,46.5C 92.609,45.8902 91.609,45.5569 90.5,45.5C 90.5,44.1667 89.8333,43.5 88.5,43.5C 88.1583,42.6618 87.4916,42.3284 86.5,42.5C 86.5,41.1667 86.5,39.8333 86.5,38.5 Z"/></g>
<g><path style="opacity:1" fill="#92cc70" d="M 106.5,38.5 C 107.458,38.9528 108.292,39.6195 109,40.5C 110.396,43.0639 111.563,45.7305 112.5,48.5C 111.1,47.9002 110.1,46.9002 109.5,45.5C 108.833,44.1667 107.833,43.1667 106.5,42.5C 106.5,41.1667 106.5,39.8333 106.5,38.5 Z"/></g>
<g><path style="opacity:0.035" fill="#f8fff5" d="M 72.5,41.5 C 73.8333,41.8333 75.1667,42.1667 76.5,42.5C 76.5,42.8333 76.5,43.1667 76.5,43.5C 74.6203,43.7709 73.287,43.1042 72.5,41.5 Z"/></g>
<g><path style="opacity:0.192" fill="#f4ffe7" d="M 76.5,43.5 C 78.0269,43.427 79.0269,44.0937 79.5,45.5C 77.9731,45.573 76.9731,44.9063 76.5,43.5 Z"/></g>
<g><path style="opacity:0.071" fill="#f9feee" d="M 71.5,45.5 C 70.8333,45.5 70.1667,45.5 69.5,45.5C 69.1667,45.5 68.8333,45.5 68.5,45.5C 66.7354,44.5386 64.7354,44.2053 62.5,44.5C 62.2529,47.9387 62.5863,51.272 63.5,54.5C 62.5041,54.5858 61.6708,54.2524 61,53.5C 60.3333,50.5 60.3333,47.5 61,44.5C 62.4002,43.8841 63.9002,43.5507 65.5,43.5C 67.8825,43.361 69.8825,44.0277 71.5,45.5 Z"/></g>
<g><path style="opacity:0.071" fill="#f7fdeb" d="M 91.5,41.5 C 93.9,43.2964 95.5667,45.6298 96.5,48.5C 95.5,47.8333 94.5,47.1667 93.5,46.5C 92.8333,44.8333 92.1667,43.1667 91.5,41.5 Z"/></g>
<g><path style="opacity:1" fill="#97cc75" d="M 81.5,45.5 C 82.609,45.5569 83.609,45.8902 84.5,46.5C 85.6005,47.6049 86.2671,48.9382 86.5,50.5C 84.5,49.1667 82.8333,47.5 81.5,45.5 Z"/></g>
<g><path style="opacity:0.067" fill="#f8feee" d="M 106.5,36.5 C 111.22,39.9905 113.886,44.6572 114.5,50.5C 114.167,50.5 113.833,50.5 113.5,50.5C 113.672,49.5084 113.338,48.8417 112.5,48.5C 111.563,45.7305 110.396,43.0639 109,40.5C 108.292,39.6195 107.458,38.9528 106.5,38.5C 106.5,37.8333 106.5,37.1667 106.5,36.5 Z"/></g>
<g><path style="opacity:1" fill="#7ad14c" d="M 65.5,46.5 C 67.8239,47.6557 70.1572,48.6557 72.5,49.5C 72.1583,50.3382 71.4916,50.6716 70.5,50.5C 67.4535,50.8174 65.7868,49.4841 65.5,46.5 Z"/></g>
<g><path style="opacity:1" fill="#89ca63" d="M 64.5,46.5 C 65.5676,45.5655 66.901,45.2322 68.5,45.5C 68.8333,45.5 69.1667,45.5 69.5,45.5C 72.3267,46.4188 74.66,48.0855 76.5,50.5C 75.1667,50.1667 73.8333,49.8333 72.5,49.5C 70.1572,48.6557 67.8239,47.6557 65.5,46.5C 65.1667,46.5 64.8333,46.5 64.5,46.5 Z"/></g>
<g><path style="opacity:1" fill="#7fd14a" d="M 88.5,43.5 C 89.8333,43.5 90.5,44.1667 90.5,45.5C 90.8034,48.5876 89.4701,50.2542 86.5,50.5C 86.2671,48.9382 85.6005,47.6049 84.5,46.5C 84.6941,44.0882 86.0274,43.0882 88.5,43.5 Z"/></g>
<g><path style="opacity:0.835" fill="#a9d38e" d="M 68.5,45.5 C 66.901,45.2322 65.5676,45.5655 64.5,46.5C 63.233,49.2165 63.5663,51.8832 65.5,54.5C 64.8333,54.5 64.1667,54.5 63.5,54.5C 62.5863,51.272 62.2529,47.9387 62.5,44.5C 64.7354,44.2053 66.7354,44.5386 68.5,45.5 Z"/></g>
<g><path style="opacity:1" fill="#87cd5a" d="M 90.5,45.5 C 91.609,45.5569 92.609,45.8902 93.5,46.5C 93.5,47.1667 93.5,47.8333 93.5,48.5C 92.5041,48.4142 91.6708,48.7476 91,49.5C 90.5034,51.8098 90.3367,54.1432 90.5,56.5C 88.7819,54.7772 87.4486,52.7772 86.5,50.5C 89.4701,50.2542 90.8034,48.5876 90.5,45.5 Z"/></g>
<g><path style="opacity:1" fill="#7cd24a" d="M 103.5,40.5 C 104.5,41.1667 105.5,41.8333 106.5,42.5C 107.833,43.1667 108.833,44.1667 109.5,45.5C 109.5,47.1667 109.5,48.8333 109.5,50.5C 110.5,50.5 111.5,50.5 112.5,50.5C 112.5,53.1667 112.5,55.8333 112.5,58.5C 111.849,59.0906 111.182,59.7573 110.5,60.5C 109.738,56.0385 107.738,52.3718 104.5,49.5C 104.167,48.5 103.5,47.8333 102.5,47.5C 102.267,45.9382 101.6,44.6049 100.5,43.5C 101.496,43.4142 102.329,43.7476 103,44.5C 103.49,43.2068 103.657,41.8734 103.5,40.5 Z"/></g>
<g><path style="opacity:0.106" fill="#ebfadd" d="M 69.5,45.5 C 70.1667,45.5 70.8333,45.5 71.5,45.5C 79.2986,48.296 84.2986,53.6293 86.5,61.5C 84.0251,57.4382 81.0251,53.7716 77.5,50.5C 77.1667,50.5 76.8333,50.5 76.5,50.5C 74.66,48.0855 72.3267,46.4188 69.5,45.5 Z"/></g>
<g><path style="opacity:1" fill="#97cd75" d="M 93.5,46.5 C 94.5,47.1667 95.5,47.8333 96.5,48.5C 96.427,50.0269 97.0937,51.0269 98.5,51.5C 98.6287,53.2161 98.962,54.8828 99.5,56.5C 97.5051,53.8419 95.5051,51.1753 93.5,48.5C 93.5,47.8333 93.5,47.1667 93.5,46.5 Z"/></g>
<g><path style="opacity:0.067" fill="#f9ffe6" d="M 96.5,48.5 C 97.9063,48.9731 98.573,49.9731 98.5,51.5C 97.0937,51.0269 96.427,50.0269 96.5,48.5 Z"/></g>
<g><path style="opacity:1" fill="#80cd54" d="M 64.5,46.5 C 64.8333,46.5 65.1667,46.5 65.5,46.5C 65.7868,49.4841 67.4535,50.8174 70.5,50.5C 70.3284,51.4916 70.6618,52.1583 71.5,52.5C 72.0256,54.2303 73.0256,55.5637 74.5,56.5C 74.5,56.8333 74.5,57.1667 74.5,57.5C 73.8333,57.5 73.1667,57.5 72.5,57.5C 71.656,55.2407 69.9893,54.2407 67.5,54.5C 66.8333,54.5 66.1667,54.5 65.5,54.5C 63.5663,51.8832 63.233,49.2165 64.5,46.5 Z"/></g>
<g><path style="opacity:1" fill="#7cd34a" d="M 74.5,56.5 C 73.0256,55.5637 72.0256,54.2303 71.5,52.5C 72.9187,51.5489 74.5853,51.2155 76.5,51.5C 76.8799,53.698 76.2132,55.3646 74.5,56.5 Z"/></g>
<g><path style="opacity:0.008" fill="#f3fde9" d="M 79.5,45.5 C 80.1667,45.5 80.8333,45.5 81.5,45.5C 82.8333,47.5 84.5,49.1667 86.5,50.5C 87.4486,52.7772 88.7819,54.7772 90.5,56.5C 90.5,56.8333 90.5,57.1667 90.5,57.5C 91.2341,58.7079 91.5674,60.0413 91.5,61.5C 91.5,62.8333 91.5,64.1667 91.5,65.5C 89.5784,57.6683 85.5784,51.0016 79.5,45.5 Z"/></g>
<g><path style="opacity:1" fill="#7fcf50" d="M 93.5,48.5 C 95.5051,51.1753 97.5051,53.8419 99.5,56.5C 99.5,56.8333 99.5,57.1667 99.5,57.5C 99.5,58.8333 99.5,60.1667 99.5,61.5C 98.9348,59.58 97.9348,57.9133 96.5,56.5C 95.5416,56.0472 94.7083,55.3805 94,54.5C 93.5099,56.5454 93.6765,58.5454 94.5,60.5C 93.3634,59.2112 92.0301,58.2112 90.5,57.5C 90.5,57.1667 90.5,56.8333 90.5,56.5C 90.3367,54.1432 90.5034,51.8098 91,49.5C 91.6708,48.7476 92.5041,48.4142 93.5,48.5 Z"/></g>
<g><path style="opacity:0.078" fill="#f3fde5" d="M 98.5,51.5 C 100.776,54.7929 102.109,58.4596 102.5,62.5C 101.313,60.9275 100.313,59.2608 99.5,57.5C 99.5,57.1667 99.5,56.8333 99.5,56.5C 98.962,54.8828 98.6287,53.2161 98.5,51.5 Z"/></g>
<g><path style="opacity:0.027" fill="#f7feee" d="M 96.5,41.5 C 98.5,43.5 100.5,45.5 102.5,47.5C 104.196,52.0575 105.696,56.7242 107,61.5C 107.499,67.1569 107.666,72.8236 107.5,78.5C 107.5,79.1667 107.5,79.8333 107.5,80.5C 107.167,80.5 106.833,80.5 106.5,80.5C 107.066,71.9836 106.232,63.6503 104,55.5C 101.591,50.763 99.0911,46.0963 96.5,41.5 Z"/></g>
<g><path style="opacity:0.898" fill="#a5d784" d="M 102.5,47.5 C 103.5,47.8333 104.167,48.5 104.5,49.5C 107.041,54.1303 108.374,59.1303 108.5,64.5C 108.819,69.3633 108.486,74.03 107.5,78.5C 107.666,72.8236 107.499,67.1569 107,61.5C 105.696,56.7242 104.196,52.0575 102.5,47.5 Z"/></g>
<g><path style="opacity:0.086" fill="#f5ffea" d="M 63.5,54.5 C 64.1667,54.5 64.8333,54.5 65.5,54.5C 66.1667,54.5 66.8333,54.5 67.5,54.5C 68.6935,55.2719 69.6935,56.2719 70.5,57.5C 67.9823,56.7362 65.649,55.7362 63.5,54.5 Z"/></g>
<g><path style="opacity:0.976" fill="#9ad07b" d="M 67.5,54.5 C 69.9893,54.2407 71.656,55.2407 72.5,57.5C 71.8333,57.5 71.1667,57.5 70.5,57.5C 69.6935,56.2719 68.6935,55.2719 67.5,54.5 Z"/></g>
<g><path style="opacity:1" fill="#7dd04f" d="M 72.5,49.5 C 73.8333,49.8333 75.1667,50.1667 76.5,50.5C 76.8333,50.5 77.1667,50.5 77.5,50.5C 77.5,52.1667 77.5,53.8333 77.5,55.5C 78.5,55.5 79.5,55.5 80.5,55.5C 80.628,57.6547 80.128,59.6547 79,61.5C 78.3292,60.7476 77.4959,60.4142 76.5,60.5C 75.5987,59.7095 74.9321,58.7095 74.5,57.5C 74.5,57.1667 74.5,56.8333 74.5,56.5C 76.2132,55.3646 76.8799,53.698 76.5,51.5C 74.5853,51.2155 72.9187,51.5489 71.5,52.5C 70.6618,52.1583 70.3284,51.4916 70.5,50.5C 71.4916,50.6716 72.1583,50.3382 72.5,49.5 Z"/></g>
<g><path style="opacity:0.039" fill="#fdfefa" d="M 114.5,50.5 C 115.117,50.6107 115.617,50.944 116,51.5C 117.446,55.7222 118.28,60.0555 118.5,64.5C 118.167,64.5 117.833,64.5 117.5,64.5C 116.259,59.9667 115.259,55.3 114.5,50.5 Z"/></g>
<g><path style="opacity:0.333" fill="#eafed7" d="M 70.5,57.5 C 71.1667,57.5 71.8333,57.5 72.5,57.5C 73.6005,58.6049 74.2671,59.9382 74.5,61.5C 72.8333,60.5 71.5,59.1667 70.5,57.5 Z"/></g>
<g><path style="opacity:1" fill="#91cc6b" d="M 77.5,50.5 C 81.0251,53.7716 84.0251,57.4382 86.5,61.5C 86.5,62.8333 86.5,64.1667 86.5,65.5C 86.1667,65.5 85.8333,65.5 85.5,65.5C 84.6334,61.6705 82.9668,58.3372 80.5,55.5C 79.5,55.5 78.5,55.5 77.5,55.5C 77.5,53.8333 77.5,52.1667 77.5,50.5 Z"/></g>
<g><path style="opacity:1" fill="#80ce53" d="M 104.5,49.5 C 107.738,52.3718 109.738,56.0385 110.5,60.5C 111.182,59.7573 111.849,59.0906 112.5,58.5C 112.285,60.1788 112.952,61.1788 114.5,61.5C 115.117,61.6107 115.617,61.944 116,62.5C 116.499,67.8229 116.666,73.1563 116.5,78.5C 116.167,78.5 115.833,78.5 115.5,78.5C 115.721,75.7212 115.388,73.0545 114.5,70.5C 114.897,66.6787 113.564,63.6787 110.5,61.5C 110.258,64.319 110.258,67.319 110.5,70.5C 110.5,72.1667 110.5,73.8333 110.5,75.5C 110.167,75.5 109.833,75.5 109.5,75.5C 109.815,71.6286 109.482,67.9619 108.5,64.5C 108.374,59.1303 107.041,54.1303 104.5,49.5 Z"/></g>
<g><path style="opacity:1" fill="#9ece7c" d="M 113.5,50.5 C 113.833,50.5 114.167,50.5 114.5,50.5C 115.259,55.3 116.259,59.9667 117.5,64.5C 117.819,69.3633 117.486,74.03 116.5,78.5C 116.666,73.1563 116.499,67.8229 116,62.5C 115.617,61.944 115.117,61.6107 114.5,61.5C 114.448,57.8019 114.114,54.1352 113.5,50.5 Z"/></g>
<g><path style="opacity:1" fill="#7bd348" d="M 96.5,56.5 C 97.5192,58.5405 97.5192,60.5405 96.5,62.5C 95.8182,61.7573 95.1515,61.0906 94.5,60.5C 93.6765,58.5454 93.5099,56.5454 94,54.5C 94.7083,55.3805 95.5416,56.0472 96.5,56.5 Z"/></g>
<g><path style="opacity:1" fill="#87cb5c" d="M 90.5,57.5 C 92.0301,58.2112 93.3634,59.2112 94.5,60.5C 94.5,61.5 94.5,62.5 94.5,63.5C 94.5,64.5 94.5,65.5 94.5,66.5C 94.1667,66.5 93.8333,66.5 93.5,66.5C 93.2041,64.597 92.5375,62.9303 91.5,61.5C 91.5674,60.0413 91.2341,58.7079 90.5,57.5 Z"/></g>
<g><path style="opacity:1" fill="#82cd57" d="M 109.5,45.5 C 110.1,46.9002 111.1,47.9002 112.5,48.5C 113.338,48.8417 113.672,49.5084 113.5,50.5C 114.114,54.1352 114.448,57.8019 114.5,61.5C 112.952,61.1788 112.285,60.1788 112.5,58.5C 112.5,55.8333 112.5,53.1667 112.5,50.5C 111.5,50.5 110.5,50.5 109.5,50.5C 109.5,48.8333 109.5,47.1667 109.5,45.5 Z"/></g>
<g><path style="opacity:1" fill="#7fd052" d="M 80.5,55.5 C 82.9668,58.3372 84.6334,61.6705 85.5,65.5C 85.5,67.1667 85.5,68.8333 85.5,70.5C 84.8354,68.6309 84.1687,66.6309 83.5,64.5C 82.2857,62.6203 80.9524,62.2869 79.5,63.5C 78.1667,62.8333 77.1667,61.8333 76.5,60.5C 77.4959,60.4142 78.3292,60.7476 79,61.5C 80.128,59.6547 80.628,57.6547 80.5,55.5 Z"/></g>
<g><path style="opacity:1" fill="#7ed04d" d="M 96.5,56.5 C 97.9348,57.9133 98.9348,59.58 99.5,61.5C 99.5,62.5 99.5,63.5 99.5,64.5C 98.8826,64.3893 98.3826,64.056 98,63.5C 97.9005,65.6526 97.0672,67.3192 95.5,68.5C 95.7845,66.5853 95.4511,64.9187 94.5,63.5C 94.5,62.5 94.5,61.5 94.5,60.5C 95.1515,61.0906 95.8182,61.7573 96.5,62.5C 97.5192,60.5405 97.5192,58.5405 96.5,56.5 Z"/></g>
<g><path style="opacity:1" fill="#7dd14d" d="M 114.5,70.5 C 113.842,71.3984 113.176,72.3984 112.5,73.5C 111.824,72.3984 111.158,71.3984 110.5,70.5C 110.258,67.319 110.258,64.319 110.5,61.5C 113.564,63.6787 114.897,66.6787 114.5,70.5 Z"/></g>
<g><path style="opacity:0.039" fill="#f8fff0" d="M 86.5,61.5 C 87.2216,61.9175 87.7216,62.5842 88,63.5C 88.8136,68.0204 88.647,72.3537 87.5,76.5C 87.815,72.6286 87.4816,68.9619 86.5,65.5C 86.5,64.1667 86.5,62.8333 86.5,61.5 Z"/></g>
<g><path style="opacity:1" fill="#7bd24a" d="M 85.5,70.5 C 85.6309,71.3764 85.2975,72.0431 84.5,72.5C 83.2638,71.7542 81.9305,71.4208 80.5,71.5C 80.7678,69.901 80.4345,68.5676 79.5,67.5C 79.5,66.1667 79.5,64.8333 79.5,63.5C 80.9524,62.2869 82.2857,62.6203 83.5,64.5C 84.1687,66.6309 84.8354,68.6309 85.5,70.5 Z"/></g>
<g><path style="opacity:0.987" fill="#8cc768" d="M 72.5,57.5 C 73.1667,57.5 73.8333,57.5 74.5,57.5C 74.9321,58.7095 75.5987,59.7095 76.5,60.5C 77.1667,61.8333 78.1667,62.8333 79.5,63.5C 79.5,64.8333 79.5,66.1667 79.5,67.5C 79.3253,69.6208 79.6586,71.6208 80.5,73.5C 79.8333,73.5 79.1667,73.5 78.5,73.5C 78.5429,70.0901 78.0429,66.7568 77,63.5C 76.2917,62.6195 75.4584,61.9528 74.5,61.5C 74.2671,59.9382 73.6005,58.6049 72.5,57.5 Z"/></g>
<g><path style="opacity:0.045" fill="#effce3" d="M 74.5,61.5 C 75.4584,61.9528 76.2917,62.6195 77,63.5C 78.0429,66.7568 78.5429,70.0901 78.5,73.5C 80.0764,74.1429 81.4097,75.1429 82.5,76.5C 80.4176,76.528 78.5843,75.8613 77,74.5C 76.8542,69.9903 76.0209,65.657 74.5,61.5 Z"/></g>
<g><path style="opacity:0.149" fill="#f7fff0" d="M 102.5,62.5 C 105.167,68.5 105.167,74.5 102.5,80.5C 102.5,74.5 102.5,68.5 102.5,62.5 Z"/></g>
<g><path style="opacity:0.301" fill="#d8f7c9" d="M 91.5,61.5 C 92.5375,62.9303 93.2041,64.597 93.5,66.5C 93.81,69.7131 93.4767,72.7131 92.5,75.5C 92.5,74.5 92.5,73.5 92.5,72.5C 92.0074,70.1944 91.6741,67.861 91.5,65.5C 91.5,64.1667 91.5,62.8333 91.5,61.5 Z"/></g>
<g><path style="opacity:1" fill="#7bd14f" d="M 110.5,70.5 C 111.158,71.3984 111.824,72.3984 112.5,73.5C 113.176,72.3984 113.842,71.3984 114.5,70.5C 115.388,73.0545 115.721,75.7212 115.5,78.5C 115.198,81.3725 114.531,84.0392 113.5,86.5C 112.921,83.2938 111.921,80.2938 110.5,77.5C 110.5,76.8333 110.5,76.1667 110.5,75.5C 110.5,73.8333 110.5,72.1667 110.5,70.5 Z"/></g>
<g><path style="opacity:1" fill="#82cd56" d="M 85.5,65.5 C 85.8333,65.5 86.1667,65.5 86.5,65.5C 86.5,68.5 86.5,71.5 86.5,74.5C 84.4352,74.4828 82.4352,74.1495 80.5,73.5C 79.6586,71.6208 79.3253,69.6208 79.5,67.5C 80.4345,68.5676 80.7678,69.901 80.5,71.5C 81.9305,71.4208 83.2638,71.7542 84.5,72.5C 85.2975,72.0431 85.6309,71.3764 85.5,70.5C 85.5,68.8333 85.5,67.1667 85.5,65.5 Z"/></g>
<g><path style="opacity:1" fill="#a7d28b" d="M 86.5,65.5 C 87.4816,68.9619 87.815,72.6286 87.5,76.5C 85.8333,77.8333 84.1667,77.8333 82.5,76.5C 81.4097,75.1429 80.0764,74.1429 78.5,73.5C 79.1667,73.5 79.8333,73.5 80.5,73.5C 82.4352,74.1495 84.4352,74.4828 86.5,74.5C 86.5,71.5 86.5,68.5 86.5,65.5 Z"/></g>
<g><path style="opacity:1" fill="#7dcf50" d="M 99.5,61.5 C 100.833,67.1667 100.833,72.8333 99.5,78.5C 98.6851,77.5707 97.8518,76.5707 97,75.5C 96.3292,76.2524 95.4959,76.5858 94.5,76.5C 94.5,73.1667 94.5,69.8333 94.5,66.5C 94.5,65.5 94.5,64.5 94.5,63.5C 95.4511,64.9187 95.7845,66.5853 95.5,68.5C 95.2308,70.4286 95.7308,72.0953 97,73.5C 98.903,70.8294 99.7363,67.8294 99.5,64.5C 99.5,63.5 99.5,62.5 99.5,61.5 Z"/></g>
<g><path style="opacity:1" fill="#7dd247" d="M 99.5,64.5 C 99.7363,67.8294 98.903,70.8294 97,73.5C 95.7308,72.0953 95.2308,70.4286 95.5,68.5C 97.0672,67.3192 97.9005,65.6526 98,63.5C 98.3826,64.056 98.8826,64.3893 99.5,64.5 Z"/></g>
<g><path style="opacity:1" fill="#91cd6f" d="M 99.5,57.5 C 100.313,59.2608 101.313,60.9275 102.5,62.5C 102.5,68.5 102.5,74.5 102.5,80.5C 101.833,80.5 101.5,80.8333 101.5,81.5C 100.833,81.5 100.167,81.5 99.5,81.5C 99.5,80.5 99.5,79.5 99.5,78.5C 100.833,72.8333 100.833,67.1667 99.5,61.5C 99.5,60.1667 99.5,58.8333 99.5,57.5 Z"/></g>
<g><path style="opacity:0.023" fill="#f5fee9" d="M 12.5,73.5 C 13.1174,73.6107 13.6174,73.944 14,74.5C 14.498,77.4816 14.6646,80.4816 14.5,83.5C 14.1667,83.5 13.8333,83.5 13.5,83.5C 12.7347,80.9039 12.4013,78.2372 12.5,75.5C 12.5,74.8333 12.5,74.1667 12.5,73.5 Z"/></g>
<g><path style="opacity:0.99" fill="#94cc73" d="M 93.5,66.5 C 93.8333,66.5 94.1667,66.5 94.5,66.5C 94.5,69.8333 94.5,73.1667 94.5,76.5C 93.6515,78.8876 92.6515,81.2209 91.5,83.5C 91.8333,80.8333 92.1667,78.1667 92.5,75.5C 93.4767,72.7131 93.81,69.7131 93.5,66.5 Z"/></g>
<g><path style="opacity:0.533" fill="#dbf3ce" d="M 12.5,73.5 C 12.5,74.1667 12.5,74.8333 12.5,75.5C 9.60853,74.5975 6.60853,74.2641 3.5,74.5C 3.5,76.5 3.5,78.5 3.5,80.5C 3.16667,80.5 2.83333,80.5 2.5,80.5C 1.22147,77.9976 1.22147,75.4976 2.5,73C 6.02672,72.1925 9.36005,72.3592 12.5,73.5 Z"/></g>
<g><path style="opacity:0.369" fill="#e7f9da" d="M 21.5,77.5 C 23.2646,76.5386 25.2646,76.2053 27.5,76.5C 29.5848,78.6845 30.5848,81.3511 30.5,84.5C 29.8333,83.8333 29.1667,83.1667 28.5,82.5C 28.6716,81.5084 28.3382,80.8417 27.5,80.5C 27.5858,79.5041 27.2524,78.6708 26.5,78C 24.8659,77.5065 23.1992,77.3398 21.5,77.5 Z"/></g>
<g><path style="opacity:0.949" fill="#8cc668" d="M 12.5,75.5 C 12.4013,78.2372 12.7347,80.9039 13.5,83.5C 13.5,84.1667 13.5,84.8333 13.5,85.5C 12.184,82.5917 11.184,79.5917 10.5,76.5C 8.73535,75.5386 6.73535,75.2053 4.5,75.5C 4.68154,79.4891 5.68154,83.1558 7.5,86.5C 7.5,87.8333 7.5,89.1667 7.5,90.5C 7.16667,90.5 6.83333,90.5 6.5,90.5C 5.24798,87.2379 4.24798,83.9046 3.5,80.5C 3.5,78.5 3.5,76.5 3.5,74.5C 6.60853,74.2641 9.60853,74.5975 12.5,75.5 Z"/></g>
<g><path style="opacity:1" fill="#7dd14e" d="M 10.5,76.5 C 10.3677,79.5701 10.701,82.5701 11.5,85.5C 9.54402,83.8249 8.21068,84.1582 7.5,86.5C 5.68154,83.1558 4.68154,79.4891 4.5,75.5C 6.73535,75.2053 8.73535,75.5386 10.5,76.5 Z"/></g>
<g><path style="opacity:0.11" fill="#fcfff7" d="M 27.5,76.5 C 25.2646,76.2053 23.2646,76.5386 21.5,77.5C 20.5,77.5 19.5,77.5 18.5,77.5C 18.5,79.5 18.5,81.5 18.5,83.5C 17.5222,83.189 16.8555,82.5223 16.5,81.5C 16.723,80.0333 17.0563,78.5333 17.5,77C 20.9264,75.4245 24.2598,75.2578 27.5,76.5 Z"/></g>
<g><path style="opacity:1" fill="#7cd14d" d="M 99.5,78.5 C 99.5,79.5 99.5,80.5 99.5,81.5C 99.5,81.8333 99.5,82.1667 99.5,82.5C 97.9382,82.2671 96.6049,81.6005 95.5,80.5C 94.5655,79.4324 94.2322,78.099 94.5,76.5C 95.4959,76.5858 96.3292,76.2524 97,75.5C 97.8518,76.5707 98.6851,77.5707 99.5,78.5 Z"/></g>
<g><path style="opacity:1" fill="#7bd249" d="M 110.5,77.5 C 111.921,80.2938 112.921,83.2938 113.5,86.5C 113.167,86.5 112.833,86.5 112.5,86.5C 111.883,86.3893 111.383,86.056 111,85.5C 110.503,82.854 110.336,80.1873 110.5,77.5 Z"/></g>
<g><path style="opacity:0.027" fill="#f8fef2" d="M 117.5,64.5 C 117.833,64.5 118.167,64.5 118.5,64.5C 118.666,71.175 118.5,77.8417 118,84.5C 117.722,85.4158 117.222,86.0825 116.5,86.5C 116.5,85.5 116.5,84.5 116.5,83.5C 116.5,81.8333 116.5,80.1667 116.5,78.5C 117.486,74.03 117.819,69.3633 117.5,64.5 Z"/></g>
<g><path style="opacity:1" fill="#99ce79" d="M 21.5,77.5 C 23.1992,77.3398 24.8659,77.5065 26.5,78C 27.2524,78.6708 27.5858,79.5041 27.5,80.5C 25.283,79.6314 22.9496,79.298 20.5,79.5C 20.8905,83.5404 22.2239,87.2071 24.5,90.5C 24.5,90.8333 24.5,91.1667 24.5,91.5C 26.708,95.2771 29.3746,98.6104 32.5,101.5C 33.6005,102.605 34.2671,103.938 34.5,105.5C 31.1667,102.833 28.1667,99.8333 25.5,96.5C 22.8816,92.2595 20.5482,87.9262 18.5,83.5C 18.5,81.5 18.5,79.5 18.5,77.5C 19.5,77.5 20.5,77.5 21.5,77.5 Z"/></g>
<g><path style="opacity:1" fill="#80cd53" d="M 94.5,76.5 C 94.2322,78.099 94.5655,79.4324 95.5,80.5C 95.5,81.8333 95.5,83.1667 95.5,84.5C 91.4864,85.5427 89.8197,88.2094 90.5,92.5C 89.5084,92.3284 88.8417,92.6618 88.5,93.5C 88.1667,93.5 87.8333,93.5 87.5,93.5C 88.1667,91.8333 88.8333,90.1667 89.5,88.5C 89.8925,86.7162 90.5592,85.0495 91.5,83.5C 92.6515,81.2209 93.6515,78.8876 94.5,76.5 Z"/></g>
<g><path style="opacity:1" fill="#85ce5c" d="M 95.5,80.5 C 96.6049,81.6005 97.9382,82.2671 99.5,82.5C 98.8333,85.1667 98.1667,87.8333 97.5,90.5C 97.385,92.9468 96.385,94.9468 94.5,96.5C 94.1667,96.5 93.8333,96.5 93.5,96.5C 93.2289,94.1789 93.8955,92.1789 95.5,90.5C 95.2907,89.914 94.9574,89.414 94.5,89C 96.4661,87.6534 96.7994,86.1534 95.5,84.5C 95.5,83.1667 95.5,81.8333 95.5,80.5 Z"/></g>
<g><path style="opacity:0.996" fill="#a8d688" d="M 99.5,81.5 C 100.167,81.5 100.833,81.5 101.5,81.5C 101.167,83.5 100.833,85.5 100.5,87.5C 99.7281,88.6935 98.7281,89.6935 97.5,90.5C 98.1667,87.8333 98.8333,85.1667 99.5,82.5C 99.5,82.1667 99.5,81.8333 99.5,81.5 Z"/></g>
<g><path style="opacity:0.025" fill="#fafff6" d="M 102.5,80.5 C 102.829,83.2282 102.163,85.5615 100.5,87.5C 100.833,85.5 101.167,83.5 101.5,81.5C 101.5,80.8333 101.833,80.5 102.5,80.5 Z"/></g>
<g><path style="opacity:1" fill="#81ce54" d="M 27.5,80.5 C 28.3382,80.8417 28.6716,81.5084 28.5,82.5C 28.5,83.1667 28.5,83.8333 28.5,84.5C 27.8333,83.8333 27.1667,83.1667 26.5,82.5C 25.2196,81.0687 23.5529,80.4021 21.5,80.5C 21.2196,83.3882 22.5529,84.8882 25.5,85C 24.5939,86.6995 24.2606,88.5328 24.5,90.5C 22.2239,87.2071 20.8905,83.5404 20.5,79.5C 22.9496,79.298 25.283,79.6314 27.5,80.5 Z"/></g>
<g><path style="opacity:1" fill="#86ca5a" d="M 108.5,64.5 C 109.482,67.9619 109.815,71.6286 109.5,75.5C 109.756,79.2693 109.423,82.9359 108.5,86.5C 108.167,86.5 107.833,86.5 107.5,86.5C 107.5,84.5 107.5,82.5 107.5,80.5C 107.5,79.8333 107.5,79.1667 107.5,78.5C 108.486,74.03 108.819,69.3633 108.5,64.5 Z"/></g>
<g><path style="opacity:0.949" fill="#92c873" d="M 115.5,78.5 C 115.833,78.5 116.167,78.5 116.5,78.5C 116.5,80.1667 116.5,81.8333 116.5,83.5C 115.869,85.9752 114.869,88.3085 113.5,90.5C 113.5,89.1667 113.5,87.8333 113.5,86.5C 114.531,84.0392 115.198,81.3725 115.5,78.5 Z"/></g>
<g><path style="opacity:1" fill="#7ad348" d="M 26.5,82.5 C 26.2865,84.1439 26.6198,85.6439 27.5,87C 26.8366,88.5185 25.8366,89.6851 24.5,90.5C 24.2606,88.5328 24.5939,86.6995 25.5,85C 22.5529,84.8882 21.2196,83.3882 21.5,80.5C 23.5529,80.4021 25.2196,81.0687 26.5,82.5 Z"/></g>
<g><path style="opacity:0.682" fill="#e6f8d8" d="M 92.5,72.5 C 92.5,73.5 92.5,74.5 92.5,75.5C 92.1667,78.1667 91.8333,80.8333 91.5,83.5C 90.5592,85.0495 89.8925,86.7162 89.5,88.5C 88.1667,89.1667 87.1667,90.1667 86.5,91.5C 86.1667,91.5 85.8333,91.5 85.5,91.5C 86.9734,88.5531 88.4734,85.5531 90,82.5C 90.5348,78.9618 91.3681,75.6284 92.5,72.5 Z"/></g>
<g><path style="opacity:1" fill="#7ed04b" d="M 109.5,75.5 C 109.833,75.5 110.167,75.5 110.5,75.5C 110.5,76.1667 110.5,76.8333 110.5,77.5C 110.336,80.1873 110.503,82.854 111,85.5C 111.383,86.056 111.883,86.3893 112.5,86.5C 112.19,88.1436 111.19,89.1436 109.5,89.5C 109.737,88.209 109.404,87.209 108.5,86.5C 109.423,82.9359 109.756,79.2693 109.5,75.5 Z"/></g>
<g><path style="opacity:0.247" fill="#eefbdf" d="M 13.5,83.5 C 13.8333,83.5 14.1667,83.5 14.5,83.5C 16.1319,86.673 17.4652,90.0063 18.5,93.5C 18.1667,93.5 17.8333,93.5 17.5,93.5C 16.3503,90.7018 15.017,88.0352 13.5,85.5C 13.5,84.8333 13.5,84.1667 13.5,83.5 Z"/></g>
<g><path style="opacity:1" fill="#7dd249" d="M 107.5,86.5 C 107.833,86.5 108.167,86.5 108.5,86.5C 109.404,87.209 109.737,88.209 109.5,89.5C 109.5,89.8333 109.5,90.1667 109.5,90.5C 108.519,95.7507 107.519,95.7507 106.5,90.5C 106.232,88.901 106.566,87.5676 107.5,86.5 Z"/></g>
<g><path style="opacity:0.365" fill="#e8f9d9" d="M 2.5,80.5 C 2.83333,80.5 3.16667,80.5 3.5,80.5C 4.24798,83.9046 5.24798,87.2379 6.5,90.5C 6.83333,92.5 7.16667,94.5 7.5,96.5C 4.65413,91.6243 2.98746,86.291 2.5,80.5 Z"/></g>
<g><path style="opacity:1" fill="#83cf59" d="M 10.5,76.5 C 11.184,79.5917 12.184,82.5917 13.5,85.5C 15.017,88.0352 16.3503,90.7018 17.5,93.5C 17.5,94.1667 17.5,94.8333 17.5,95.5C 16.1851,94.5244 14.8518,93.5244 13.5,92.5C 12.8165,92.8627 12.1499,93.1961 11.5,93.5C 10.6618,93.1583 10.3284,92.4916 10.5,91.5C 10.8333,89.5 11.1667,87.5 11.5,85.5C 10.701,82.5701 10.3677,79.5701 10.5,76.5 Z"/></g>
<g><path style="opacity:1" fill="#7bd04d" d="M 26.5,82.5 C 27.1667,83.1667 27.8333,83.8333 28.5,84.5C 29.038,86.1172 29.3713,87.7839 29.5,89.5C 28.5313,90.3094 27.6979,91.3094 27,92.5C 26.3292,91.7476 25.4959,91.4142 24.5,91.5C 24.5,91.1667 24.5,90.8333 24.5,90.5C 25.8366,89.6851 26.8366,88.5185 27.5,87C 26.6198,85.6439 26.2865,84.1439 26.5,82.5 Z"/></g>
<g><path style="opacity:1" fill="#7cd149" d="M 11.5,85.5 C 11.1667,87.5 10.8333,89.5 10.5,91.5C 9.83333,91.8333 9.16667,92.1667 8.5,92.5C 7.66175,92.1583 7.32842,91.4916 7.5,90.5C 7.5,89.1667 7.5,87.8333 7.5,86.5C 8.21068,84.1582 9.54402,83.8249 11.5,85.5 Z"/></g>
<g><path style="opacity:1" fill="#9bcd76" d="M 28.5,82.5 C 29.1667,83.1667 29.8333,83.8333 30.5,84.5C 31.1667,86.5 31.8333,88.5 32.5,90.5C 31.391,90.4431 30.391,90.1098 29.5,89.5C 29.3713,87.7839 29.038,86.1172 28.5,84.5C 28.5,83.8333 28.5,83.1667 28.5,82.5 Z"/></g>
<g><path style="opacity:1" fill="#80cd53" d="M 112.5,86.5 C 112.833,86.5 113.167,86.5 113.5,86.5C 113.5,87.8333 113.5,89.1667 113.5,90.5C 113.5,91.1667 113.5,91.8333 113.5,92.5C 112,93.6252 110.667,94.9586 109.5,96.5C 109.5,94.5 109.5,92.5 109.5,90.5C 109.5,90.1667 109.5,89.8333 109.5,89.5C 111.19,89.1436 112.19,88.1436 112.5,86.5 Z"/></g>
<g><path style="opacity:0.114" fill="#f0fde3" d="M 116.5,83.5 C 116.5,84.5 116.5,85.5 116.5,86.5C 116.416,89.3274 115.75,91.994 114.5,94.5C 113.833,94.8333 113.167,95.1667 112.5,95.5C 112.557,94.391 112.89,93.391 113.5,92.5C 113.5,91.8333 113.5,91.1667 113.5,90.5C 114.869,88.3085 115.869,85.9752 116.5,83.5 Z"/></g>
<g><path style="opacity:0.063" fill="#fcfff0" d="M 106.5,80.5 C 106.399,86.353 104.399,91.353 100.5,95.5C 102.833,90.5209 104.833,85.5209 106.5,80.5 Z"/></g>
<g><path style="opacity:1" fill="#7fcf52" d="M 10.5,91.5 C 10.3284,92.4916 10.6618,93.1583 11.5,93.5C 12.3705,96.1123 13.0372,98.779 13.5,101.5C 11.5832,98.669 9.91657,95.669 8.5,92.5C 9.16667,92.1667 9.83333,91.8333 10.5,91.5 Z"/></g>
<g><path style="opacity:0.086" fill="#f4feeb" d="M 18.5,83.5 C 20.5482,87.9262 22.8816,92.2595 25.5,96.5C 25.1667,96.5 24.8333,96.5 24.5,96.5C 20.9783,92.9633 18.9783,88.63 18.5,83.5 Z"/></g>
<g><path style="opacity:1" fill="#7ece52" d="M 29.5,89.5 C 30.391,90.1098 31.391,90.4431 32.5,90.5C 32.5,91.1667 32.5,91.8333 32.5,92.5C 31.4168,92.4606 30.4168,92.1272 29.5,91.5C 29.1667,92.1667 28.8333,92.8333 28.5,93.5C 29.8229,95.1651 31.1562,96.8317 32.5,98.5C 32.5,99.5 32.5,100.5 32.5,101.5C 29.3746,98.6104 26.708,95.2771 24.5,91.5C 25.4959,91.4142 26.3292,91.7476 27,92.5C 27.6979,91.3094 28.5313,90.3094 29.5,89.5 Z"/></g>
<g><path style="opacity:1" fill="#7dd24c" d="M 95.5,84.5 C 96.7994,86.1534 96.4661,87.6534 94.5,89C 94.9574,89.414 95.2907,89.914 95.5,90.5C 93.8955,92.1789 93.2289,94.1789 93.5,96.5C 93.1667,96.5 92.8333,96.5 92.5,96.5C 92.8432,94.5168 92.1765,93.1834 90.5,92.5C 89.8197,88.2094 91.4864,85.5427 95.5,84.5 Z"/></g>
<g><path style="opacity:1" fill="#9bd27b" d="M 106.5,80.5 C 106.833,80.5 107.167,80.5 107.5,80.5C 107.5,82.5 107.5,84.5 107.5,86.5C 106.566,87.5676 106.232,88.901 106.5,90.5C 105.326,91.5137 104.66,92.847 104.5,94.5C 103.833,95.1667 103.167,95.8333 102.5,96.5C 101.833,96.8333 101.167,97.1667 100.5,97.5C 100.5,96.8333 100.5,96.1667 100.5,95.5C 104.399,91.353 106.399,86.353 106.5,80.5 Z"/></g>
<g><path style="opacity:1" fill="#7ed04c" d="M 17.5,95.5 C 17.5,96.1667 17.5,96.8333 17.5,97.5C 17.4754,100.179 16.142,101.512 13.5,101.5C 13.0372,98.779 12.3705,96.1123 11.5,93.5C 12.1499,93.1961 12.8165,92.8627 13.5,92.5C 14.8518,93.5244 16.1851,94.5244 17.5,95.5 Z"/></g>
<g><path style="opacity:1" fill="#89c866" d="M 89.5,88.5 C 88.8333,90.1667 88.1667,91.8333 87.5,93.5C 85.5,94.8333 83.8333,96.5 82.5,98.5C 80.1495,99.8611 77.8162,101.194 75.5,102.5C 79.4729,99.1938 83.1396,95.5271 86.5,91.5C 87.1667,90.1667 88.1667,89.1667 89.5,88.5 Z"/></g>
<g><path style="opacity:1" fill="#80d14f" d="M 87.5,93.5 C 87.8333,93.5 88.1667,93.5 88.5,93.5C 89.5981,94.397 89.5981,95.2303 88.5,96C 89.2438,97.0386 90.2438,97.5386 91.5,97.5C 90.7095,98.4013 89.7095,99.0679 88.5,99.5C 87.5891,95.8873 85.9225,95.554 83.5,98.5C 83.1667,98.5 82.8333,98.5 82.5,98.5C 83.8333,96.5 85.5,94.8333 87.5,93.5 Z"/></g>
<g><path style="opacity:0.031" fill="#fbfffa" d="M 18.5,93.5 C 19.9063,93.9731 20.573,94.9731 20.5,96.5C 19.0937,96.0269 18.427,95.0269 18.5,93.5 Z"/></g>
<g><path style="opacity:1" fill="#8ac967" d="M 32.5,90.5 C 34.1394,92.8061 36.1394,94.8061 38.5,96.5C 38.5,97.1667 38.5,97.8333 38.5,98.5C 37.5,97.8333 36.5,97.1667 35.5,96.5C 33.7706,95.7638 32.7706,94.4305 32.5,92.5C 32.5,91.8333 32.5,91.1667 32.5,90.5 Z"/></g>
<g><path style="opacity:0.008" fill="#f9fef1" d="M 100.5,87.5 C 97.3316,96.517 91.665,103.684 83.5,109C 82.552,109.483 81.552,109.649 80.5,109.5C 80.8333,108.833 81.1667,108.167 81.5,107.5C 86.7186,104.954 91.0519,101.287 94.5,96.5C 96.385,94.9468 97.385,92.9468 97.5,90.5C 98.7281,89.6935 99.7281,88.6935 100.5,87.5 Z"/></g>
<g><path style="opacity:1" fill="#7fcf4e" d="M 104.5,94.5 C 104.721,97.0972 105.221,97.0972 106,94.5C 106.71,95.9733 107.876,96.6399 109.5,96.5C 108.37,98.3146 107.704,100.315 107.5,102.5C 106.391,102.557 105.391,102.89 104.5,103.5C 104.975,100.918 104.308,98.9179 102.5,97.5C 102.5,97.1667 102.5,96.8333 102.5,96.5C 103.167,95.8333 103.833,95.1667 104.5,94.5 Z"/></g>
<g><path style="opacity:1" fill="#79cf49" d="M 106.5,90.5 C 107.519,95.7507 108.519,95.7507 109.5,90.5C 109.5,92.5 109.5,94.5 109.5,96.5C 107.876,96.6399 106.71,95.9733 106,94.5C 105.221,97.0972 104.721,97.0972 104.5,94.5C 104.66,92.847 105.326,91.5137 106.5,90.5 Z"/></g>
<g><path style="opacity:1" fill="#7cd349" d="M 32.5,92.5 C 32.7706,94.4305 33.7706,95.7638 35.5,96.5C 36.2916,97.9669 36.2916,99.3002 35.5,100.5C 34.7348,99.3881 33.7348,98.7214 32.5,98.5C 31.1562,96.8317 29.8229,95.1651 28.5,93.5C 28.8333,92.8333 29.1667,92.1667 29.5,91.5C 30.4168,92.1272 31.4168,92.4606 32.5,92.5 Z"/></g>
<g><path style="opacity:0.016" fill="#f8feee" d="M 30.5,84.5 C 33.1348,87.079 35.3015,90.079 37,93.5C 39.6877,95.364 42.1877,97.364 44.5,99.5C 42.0532,99.385 40.0532,98.385 38.5,96.5C 36.1394,94.8061 34.1394,92.8061 32.5,90.5C 31.8333,88.5 31.1667,86.5 30.5,84.5 Z"/></g>
<g><path style="opacity:0.31" fill="#d7f5c6" d="M 85.5,91.5 C 85.8333,91.5 86.1667,91.5 86.5,91.5C 83.1396,95.5271 79.4729,99.1938 75.5,102.5C 74.8333,102.5 74.1667,102.5 73.5,102.5C 74.1667,101.5 74.8333,100.5 75.5,99.5C 79.1219,97.2133 82.4552,94.5466 85.5,91.5 Z"/></g>
<g><path style="opacity:1" fill="#7dd149" d="M 90.5,92.5 C 92.1765,93.1834 92.8432,94.5168 92.5,96.5C 92.5,97.1667 92.1667,97.5 91.5,97.5C 90.2438,97.5386 89.2438,97.0386 88.5,96C 89.5981,95.2303 89.5981,94.397 88.5,93.5C 88.8417,92.6618 89.5084,92.3284 90.5,92.5 Z"/></g>
<g><path style="opacity:0.025" fill="#f9fff2" d="M 20.5,96.5 C 21.9063,96.9731 22.573,97.9731 22.5,99.5C 20.9519,99.1788 20.2852,98.1788 20.5,96.5 Z"/></g>
<g><path style="opacity:1" fill="#99d278" d="M 17.5,93.5 C 17.8333,93.5 18.1667,93.5 18.5,93.5C 18.427,95.0269 19.0937,96.0269 20.5,96.5C 20.2852,98.1788 20.9519,99.1788 22.5,99.5C 23.0798,101.749 24.4131,103.415 26.5,104.5C 26.5,104.833 26.5,105.167 26.5,105.5C 24.9382,105.267 23.6049,104.6 22.5,103.5C 22.1667,103.5 21.8333,103.5 21.5,103.5C 20.5514,101.223 19.2181,99.2228 17.5,97.5C 17.5,96.8333 17.5,96.1667 17.5,95.5C 17.5,94.8333 17.5,94.1667 17.5,93.5 Z"/></g>
<g><path style="opacity:1" fill="#7ecf4d" d="M 88.5,99.5 C 87.9232,101.652 86.7565,101.985 85,100.5C 84.79,102.058 84.29,103.391 83.5,104.5C 83.5,102.5 83.5,100.5 83.5,98.5C 85.9225,95.554 87.5891,95.8873 88.5,99.5 Z"/></g>
<g><path style="opacity:0.239" fill="#e8f9db" d="M 7.5,96.5 C 12.0341,103.053 17.0341,109.387 22.5,115.5C 15.6877,110.678 10.6877,104.344 7.5,96.5 Z"/></g>
<g><path style="opacity:1" fill="#7fd051" d="M 17.5,97.5 C 19.2181,99.2228 20.5514,101.223 21.5,103.5C 18.9879,101.821 16.9879,102.155 15.5,104.5C 14.5987,103.71 13.9321,102.71 13.5,101.5C 16.142,101.512 17.4754,100.179 17.5,97.5 Z"/></g>
<g><path style="opacity:1" fill="#7dd04c" d="M 35.5,96.5 C 36.5,97.1667 37.5,97.8333 38.5,98.5C 39.5,98.8333 40.1667,99.5 40.5,100.5C 40.7148,102.179 40.0481,103.179 38.5,103.5C 36.7857,102.262 34.7857,101.595 32.5,101.5C 32.5,100.5 32.5,99.5 32.5,98.5C 33.7348,98.7214 34.7348,99.3881 35.5,100.5C 36.2916,99.3002 36.2916,97.9669 35.5,96.5 Z"/></g>
<g><path style="opacity:0.914" fill="#9bd07b" d="M 113.5,92.5 C 112.89,93.391 112.557,94.391 112.5,95.5C 111.123,98.1834 109.457,100.517 107.5,102.5C 107.704,100.315 108.37,98.3146 109.5,96.5C 110.667,94.9586 112,93.6252 113.5,92.5 Z"/></g>
<g><path style="opacity:1" fill="#90c970" d="M 6.5,90.5 C 6.83333,90.5 7.16667,90.5 7.5,90.5C 7.32842,91.4916 7.66175,92.1583 8.5,92.5C 9.91657,95.669 11.5832,98.669 13.5,101.5C 13.9321,102.71 14.5987,103.71 15.5,104.5C 17.177,106.54 18.8437,108.54 20.5,110.5C 21.8333,112.167 23.1667,113.833 24.5,115.5C 23.8333,115.5 23.1667,115.5 22.5,115.5C 17.0341,109.387 12.0341,103.053 7.5,96.5C 7.16667,94.5 6.83333,92.5 6.5,90.5 Z"/></g>
<g><path style="opacity:1" fill="#8ccb68" d="M 92.5,96.5 C 92.8333,96.5 93.1667,96.5 93.5,96.5C 93.8333,96.5 94.1667,96.5 94.5,96.5C 91.0519,101.287 86.7186,104.954 81.5,107.5C 81.7822,106.222 82.4489,105.222 83.5,104.5C 84.29,103.391 84.79,102.058 85,100.5C 86.7565,101.985 87.9232,101.652 88.5,99.5C 89.7095,99.0679 90.7095,98.4013 91.5,97.5C 92.1667,97.5 92.5,97.1667 92.5,96.5 Z"/></g>
<g><path style="opacity:0.098" fill="#fbfff5" d="M 22.5,99.5 C 24.5869,100.585 25.9202,102.251 26.5,104.5C 24.4131,103.415 23.0798,101.749 22.5,99.5 Z"/></g>
<g><path style="opacity:1" fill="#7ed04a" d="M 82.5,98.5 C 82.8333,98.5 83.1667,98.5 83.5,98.5C 83.5,100.5 83.5,102.5 83.5,104.5C 81.8333,104.5 80.1667,104.5 78.5,104.5C 76.9582,103.699 75.2915,103.366 73.5,103.5C 73.5,103.167 73.5,102.833 73.5,102.5C 74.1667,102.5 74.8333,102.5 75.5,102.5C 77.8162,101.194 80.1495,99.8611 82.5,98.5 Z"/></g>
<g><path style="opacity:1" fill="#79d24b" d="M 102.5,98.5 C 103.613,99.9464 103.78,101.613 103,103.5C 102.583,104.756 101.75,105.423 100.5,105.5C 100.5,104.167 100.5,102.833 100.5,101.5C 100.427,99.9731 101.094,98.9731 102.5,98.5 Z"/></g>
<g><path style="opacity:0.02" fill="#f5fdee" d="M 114.5,94.5 C 112.312,100.885 108.645,106.218 103.5,110.5C 104.82,107.86 106.153,105.193 107.5,102.5C 109.457,100.517 111.123,98.1834 112.5,95.5C 113.167,95.1667 113.833,94.8333 114.5,94.5 Z"/></g>
<g><path style="opacity:1" fill="#80cd53" d="M 32.5,101.5 C 34.7857,101.595 36.7857,102.262 38.5,103.5C 38.5,104.167 38.5,104.833 38.5,105.5C 37.1667,105.5 35.8333,105.5 34.5,105.5C 34.2671,103.938 33.6005,102.605 32.5,101.5 Z"/></g>
<g><path style="opacity:1" fill="#7fcf50" d="M 40.5,100.5 C 43.1633,102.323 46.1633,103.323 49.5,103.5C 49.8333,104.167 50.1667,104.833 50.5,105.5C 49.5,105.5 48.5,105.5 47.5,105.5C 44.9272,104.445 42.2605,104.278 39.5,105C 40.2524,105.671 40.5858,106.504 40.5,107.5C 39.1667,107.5 38.5,106.833 38.5,105.5C 38.5,104.833 38.5,104.167 38.5,103.5C 40.0481,103.179 40.7148,102.179 40.5,100.5 Z"/></g>
<g><path style="opacity:1" fill="#95ce74" d="M 38.5,96.5 C 40.0532,98.385 42.0532,99.385 44.5,99.5C 45.5907,101.534 47.2574,102.868 49.5,103.5C 46.1633,103.323 43.1633,102.323 40.5,100.5C 40.1667,99.5 39.5,98.8333 38.5,98.5C 38.5,97.8333 38.5,97.1667 38.5,96.5 Z"/></g>
<g><path style="opacity:0.11" fill="#e9fbdb" d="M 44.5,99.5 C 48.3547,100.59 52.0213,101.923 55.5,103.5C 55.5,103.833 55.5,104.167 55.5,104.5C 53.4352,104.483 51.4352,104.15 49.5,103.5C 47.2574,102.868 45.5907,101.534 44.5,99.5 Z"/></g>
<g><path style="opacity:0.22" fill="#f2fee6" d="M 75.5,99.5 C 74.8333,100.5 74.1667,101.5 73.5,102.5C 67.6003,103.957 61.6003,104.623 55.5,104.5C 55.5,104.167 55.5,103.833 55.5,103.5C 62.5196,103.596 69.1863,102.263 75.5,99.5 Z"/></g>
<g><path style="opacity:0.029" fill="#f4ffe9" d="M 100.5,95.5 C 100.5,96.1667 100.5,96.8333 100.5,97.5C 98.5381,101.064 95.8715,104.064 92.5,106.5C 92.5,106.167 92.5,105.833 92.5,105.5C 95.1691,102.158 97.8358,98.8246 100.5,95.5 Z"/></g>
<g><path style="opacity:1" fill="#8eca6f" d="M 102.5,96.5 C 102.5,96.8333 102.5,97.1667 102.5,97.5C 102.5,97.8333 102.5,98.1667 102.5,98.5C 101.094,98.9731 100.427,99.9731 100.5,101.5C 97.8816,103.452 95.5482,105.785 93.5,108.5C 92.8333,108.5 92.1667,108.5 91.5,108.5C 91.8333,107.833 92.1667,107.167 92.5,106.5C 95.8715,104.064 98.5381,101.064 100.5,97.5C 101.167,97.1667 101.833,96.8333 102.5,96.5 Z"/></g>
<g><path style="opacity:1" fill="#7fcf4e" d="M 15.5,104.5 C 19.9083,104.062 21.5749,106.062 20.5,110.5C 18.8437,108.54 17.177,106.54 15.5,104.5 Z"/></g>
<g><path style="opacity:0.11" fill="#f8ffee" d="M 24.5,96.5 C 24.8333,96.5 25.1667,96.5 25.5,96.5C 28.1667,99.8333 31.1667,102.833 34.5,105.5C 36.1667,106.833 37.8333,108.167 39.5,109.5C 39.1667,109.5 38.8333,109.5 38.5,109.5C 32.5517,106.552 27.885,102.219 24.5,96.5 Z"/></g>
<g><path style="opacity:1" fill="#7bd24a" d="M 47.5,105.5 C 48.5511,106.222 49.2178,107.222 49.5,108.5C 47.7839,108.371 46.1172,108.038 44.5,107.5C 43.1667,107.5 41.8333,107.5 40.5,107.5C 40.5858,106.504 40.2524,105.671 39.5,105C 42.2605,104.278 44.9272,104.445 47.5,105.5 Z"/></g>
<g><path style="opacity:1" fill="#8fc86a" d="M 73.5,102.5 C 73.5,102.833 73.5,103.167 73.5,103.5C 70.4164,105.101 67.083,105.768 63.5,105.5C 60.6146,105.806 57.9479,105.473 55.5,104.5C 61.6003,104.623 67.6003,103.957 73.5,102.5 Z"/></g>
<g><path style="opacity:1" fill="#85ca59" d="M 49.5,103.5 C 51.4352,104.15 53.4352,104.483 55.5,104.5C 57.9479,105.473 60.6146,105.806 63.5,105.5C 59.633,106.726 55.633,106.726 51.5,105.5C 51.1667,105.5 50.8333,105.5 50.5,105.5C 50.1667,104.833 49.8333,104.167 49.5,103.5 Z"/></g>
<g><path style="opacity:0.063" fill="#f6ffeb" d="M 92.5,105.5 C 92.5,105.833 92.5,106.167 92.5,106.5C 92.1667,107.167 91.8333,107.833 91.5,108.5C 84.2224,113.469 76.2224,116.803 67.5,118.5C 67.5,118.167 67.5,117.833 67.5,117.5C 76.7887,115.355 85.122,111.355 92.5,105.5 Z"/></g>
<g><path style="opacity:1" fill="#7bd14d" d="M 47.5,105.5 C 48.5,105.5 49.5,105.5 50.5,105.5C 50.8333,105.5 51.1667,105.5 51.5,105.5C 54.6843,107.414 58.351,108.08 62.5,107.5C 59.6104,108.245 56.6104,108.912 53.5,109.5C 52.0413,109.567 50.7079,109.234 49.5,108.5C 49.2178,107.222 48.5511,106.222 47.5,105.5 Z"/></g>
<g><path style="opacity:1" fill="#7ecf4e" d="M 73.5,103.5 C 73.5858,104.496 73.2524,105.329 72.5,106C 70.9419,106.21 69.6085,106.71 68.5,107.5C 66.5,107.5 64.5,107.5 62.5,107.5C 58.351,108.08 54.6843,107.414 51.5,105.5C 55.633,106.726 59.633,106.726 63.5,105.5C 67.083,105.768 70.4164,105.101 73.5,103.5 Z"/></g>
<g><path style="opacity:1" fill="#7ed149" d="M 73.5,103.5 C 75.2915,103.366 76.9582,103.699 78.5,104.5C 77.2318,106.047 75.5652,107.047 73.5,107.5C 73.1667,107.5 72.8333,107.5 72.5,107.5C 71.1667,107.5 69.8333,107.5 68.5,107.5C 69.6085,106.71 70.9419,106.21 72.5,106C 73.2524,105.329 73.5858,104.496 73.5,103.5 Z"/></g>
<g><path style="opacity:1" fill="#7cd249" d="M 102.5,98.5 C 102.5,98.1667 102.5,97.8333 102.5,97.5C 104.308,98.9179 104.975,100.918 104.5,103.5C 104.262,105.404 103.262,106.738 101.5,107.5C 99.1258,108.214 97.1258,109.548 95.5,111.5C 94.2867,111.253 93.62,110.586 93.5,109.5C 95.3718,107.396 97.7052,106.063 100.5,105.5C 101.75,105.423 102.583,104.756 103,103.5C 103.78,101.613 103.613,99.9464 102.5,98.5 Z"/></g>
<g><path style="opacity:0.949" fill="#94ca72" d="M 107.5,102.5 C 106.153,105.193 104.82,107.86 103.5,110.5C 101.629,110.859 100.129,111.859 99,113.5C 98.6012,113.272 98.4346,112.938 98.5,112.5C 99.925,111.078 100.925,109.411 101.5,107.5C 103.262,106.738 104.262,105.404 104.5,103.5C 105.391,102.89 106.391,102.557 107.5,102.5 Z"/></g>
<g><path style="opacity:1" fill="#7cd14c" d="M 21.5,103.5 C 21.8333,103.5 22.1667,103.5 22.5,103.5C 22.9003,105.377 23.9003,106.877 25.5,108C 24.4682,110.848 22.8015,111.681 20.5,110.5C 21.5749,106.062 19.9083,104.062 15.5,104.5C 16.9879,102.155 18.9879,101.821 21.5,103.5 Z"/></g>
<g><path style="opacity:1" fill="#79d349" d="M 62.5,107.5 C 64.5,107.5 66.5,107.5 68.5,107.5C 69.8333,107.5 71.1667,107.5 72.5,107.5C 70.0314,108.317 67.3647,108.817 64.5,109C 62.6803,109.2 61.347,110.034 60.5,111.5C 58.4727,111.662 56.4727,111.495 54.5,111C 53.944,110.617 53.6107,110.117 53.5,109.5C 56.6104,108.912 59.6104,108.245 62.5,107.5 Z"/></g>
<g><path style="opacity:1" fill="#80ce54" d="M 78.5,104.5 C 80.1667,104.5 81.8333,104.5 83.5,104.5C 82.4489,105.222 81.7822,106.222 81.5,107.5C 77.7739,106.951 75.1073,108.285 73.5,111.5C 70.8333,111.5 68.1667,111.5 65.5,111.5C 67.631,110.686 69.9644,110.186 72.5,110C 73.2524,109.329 73.5858,108.496 73.5,107.5C 75.5652,107.047 77.2318,106.047 78.5,104.5 Z"/></g>
<g><path style="opacity:1" fill="#7fd054" d="M 100.5,101.5 C 100.5,102.833 100.5,104.167 100.5,105.5C 97.7052,106.063 95.3718,107.396 93.5,109.5C 93.5,109.167 93.5,108.833 93.5,108.5C 95.5482,105.785 97.8816,103.452 100.5,101.5 Z"/></g>
<g><path style="opacity:1" fill="#80cf52" d="M 44.5,107.5 C 46.1172,108.038 47.7839,108.371 49.5,108.5C 50.7079,109.234 52.0413,109.567 53.5,109.5C 53.6107,110.117 53.944,110.617 54.5,111C 56.4727,111.495 58.4727,111.662 60.5,111.5C 62.1667,111.5 63.8333,111.5 65.5,111.5C 61.3656,112.485 57.0323,112.818 52.5,112.5C 49.685,110.922 47.0183,109.256 44.5,107.5 Z"/></g>
<g><path style="opacity:1" fill="#7ad24f" d="M 72.5,107.5 C 72.8333,107.5 73.1667,107.5 73.5,107.5C 73.5858,108.496 73.2524,109.329 72.5,110C 69.9644,110.186 67.631,110.686 65.5,111.5C 63.8333,111.5 62.1667,111.5 60.5,111.5C 61.347,110.034 62.6803,109.2 64.5,109C 67.3647,108.817 70.0314,108.317 72.5,107.5 Z"/></g>
<g><path style="opacity:1" fill="#90ce6f" d="M 81.5,107.5 C 81.1667,108.167 80.8333,108.833 80.5,109.5C 78.1667,110.167 75.8333,110.833 73.5,111.5C 75.1073,108.285 77.7739,106.951 81.5,107.5 Z"/></g>
<g><path style="opacity:1" fill="#7ecf52" d="M 22.5,103.5 C 23.6049,104.6 24.9382,105.267 26.5,105.5C 26.7499,107.941 27.7499,109.941 29.5,111.5C 25.5287,110.796 24.1954,112.129 25.5,115.5C 25.1667,115.5 24.8333,115.5 24.5,115.5C 23.1667,113.833 21.8333,112.167 20.5,110.5C 22.8015,111.681 24.4682,110.848 25.5,108C 23.9003,106.877 22.9003,105.377 22.5,103.5 Z"/></g>
<g><path style="opacity:0.034" fill="#f7fef0" d="M 38.5,109.5 C 38.8333,109.5 39.1667,109.5 39.5,109.5C 42.7036,110.901 46.0369,111.901 49.5,112.5C 56.3134,113.491 63.3134,113.825 70.5,113.5C 66.9136,115.043 63.0802,116.043 59,116.5C 53.758,115.78 48.5913,114.613 43.5,113C 41.4156,112.303 39.7489,111.136 38.5,109.5 Z"/></g>
<g><path style="opacity:1" fill="#8ecc69" d="M 34.5,105.5 C 35.8333,105.5 37.1667,105.5 38.5,105.5C 38.5,106.833 39.1667,107.5 40.5,107.5C 41.8333,107.5 43.1667,107.5 44.5,107.5C 47.0183,109.256 49.685,110.922 52.5,112.5C 51.5,112.5 50.5,112.5 49.5,112.5C 46.0369,111.901 42.7036,110.901 39.5,109.5C 37.8333,108.167 36.1667,106.833 34.5,105.5 Z"/></g>
<g><path style="opacity:0.114" fill="#f0fde7" d="M 26.5,105.5 C 26.5,105.167 26.5,104.833 26.5,104.5C 31.9326,108.613 37.5992,112.279 43.5,115.5C 43.5,115.833 43.5,116.167 43.5,116.5C 42.8333,116.5 42.1667,116.5 41.5,116.5C 36.1955,113.188 31.1955,109.521 26.5,105.5 Z"/></g>
<g><path style="opacity:0.098" fill="#f7feed" d="M 80.5,109.5 C 77.7836,112.179 74.4503,113.512 70.5,113.5C 71.5,112.833 72.5,112.167 73.5,111.5C 75.8333,110.833 78.1667,110.167 80.5,109.5 Z"/></g>
<g><path style="opacity:1" fill="#8ecf6b" d="M 91.5,108.5 C 92.1667,108.5 92.8333,108.5 93.5,108.5C 93.5,108.833 93.5,109.167 93.5,109.5C 92.2905,109.932 91.2905,110.599 90.5,111.5C 89.5,112.167 88.5,112.833 87.5,113.5C 85.5877,114.799 83.5877,115.799 81.5,116.5C 77.7207,118.314 73.7207,119.314 69.5,119.5C 68.1667,119.5 66.8333,119.5 65.5,119.5C 65.8417,118.662 66.5084,118.328 67.5,118.5C 76.2224,116.803 84.2224,113.469 91.5,108.5 Z"/></g>
<g><path style="opacity:1" fill="#7fd14c" d="M 101.5,107.5 C 100.925,109.411 99.925,111.078 98.5,112.5C 98.1667,112.5 97.8333,112.5 97.5,112.5C 95.8333,112.5 94.1667,112.5 92.5,112.5C 91.5084,112.672 90.8417,112.338 90.5,111.5C 91.2905,110.599 92.2905,109.932 93.5,109.5C 93.62,110.586 94.2867,111.253 95.5,111.5C 97.1258,109.548 99.1258,108.214 101.5,107.5 Z"/></g>
<g><path style="opacity:0.937" fill="#92cb6f" d="M 26.5,105.5 C 31.1955,109.521 36.1955,113.188 41.5,116.5C 39.7839,116.371 38.1172,116.038 36.5,115.5C 34.6597,113.331 32.3263,111.998 29.5,111.5C 27.7499,109.941 26.7499,107.941 26.5,105.5 Z"/></g>
<g><path style="opacity:0.939" fill="#9dce80" d="M 65.5,111.5 C 68.1667,111.5 70.8333,111.5 73.5,111.5C 72.5,112.167 71.5,112.833 70.5,113.5C 63.3134,113.825 56.3134,113.491 49.5,112.5C 50.5,112.5 51.5,112.5 52.5,112.5C 57.0323,112.818 61.3656,112.485 65.5,111.5 Z"/></g>
<g><path style="opacity:1" fill="#7cd049" d="M 90.5,111.5 C 90.8417,112.338 91.5084,112.672 92.5,112.5C 92.219,115.763 90.5523,117.763 87.5,118.5C 88.8333,116.833 88.8333,115.167 87.5,113.5C 88.5,112.833 89.5,112.167 90.5,111.5 Z"/></g>
<g><path style="opacity:1" fill="#7cd24a" d="M 29.5,111.5 C 29.5,112.833 29.5,114.167 29.5,115.5C 28.5,115.5 27.5,115.5 26.5,115.5C 26.1667,115.5 25.8333,115.5 25.5,115.5C 24.1954,112.129 25.5287,110.796 29.5,111.5 Z"/></g>
<g><path style="opacity:0.769" fill="#dbf2ca" d="M 103.5,110.5 C 101.431,113.573 98.7642,115.906 95.5,117.5C 96.9418,116.18 97.6085,114.514 97.5,112.5C 97.8333,112.5 98.1667,112.5 98.5,112.5C 98.4346,112.938 98.6012,113.272 99,113.5C 100.129,111.859 101.629,110.859 103.5,110.5 Z"/></g>
<g><path style="opacity:1" fill="#87cf5f" d="M 92.5,112.5 C 94.1667,112.5 95.8333,112.5 97.5,112.5C 97.6085,114.514 96.9418,116.18 95.5,117.5C 95.5,118.167 95.1667,118.5 94.5,118.5C 93.0413,118.433 91.7079,118.766 90.5,119.5C 89.5,119.5 88.5,119.5 87.5,119.5C 87.5,119.167 87.5,118.833 87.5,118.5C 90.5523,117.763 92.219,115.763 92.5,112.5 Z"/></g>
<g><path style="opacity:0.478" fill="#eefcdb" d="M 22.5,115.5 C 23.1667,115.5 23.8333,115.5 24.5,115.5C 25.5,116.833 26.5,118.167 27.5,119.5C 25.2512,118.92 23.5846,117.587 22.5,115.5 Z"/></g>
<g><path style="opacity:1" fill="#7fd052" d="M 29.5,111.5 C 32.3263,111.998 34.6597,113.331 36.5,115.5C 34.0108,115.298 31.6775,115.798 29.5,117C 31.3197,117.2 32.653,118.034 33.5,119.5C 30.4542,119.275 28.1209,117.942 26.5,115.5C 27.5,115.5 28.5,115.5 29.5,115.5C 29.5,114.167 29.5,112.833 29.5,111.5 Z"/></g>
<g><path style="opacity:1" fill="#7ad249" d="M 36.5,115.5 C 36.5,116.833 36.5,118.167 36.5,119.5C 35.5,119.5 34.5,119.5 33.5,119.5C 32.653,118.034 31.3197,117.2 29.5,117C 31.6775,115.798 34.0108,115.298 36.5,115.5 Z"/></g>
<g><path style="opacity:1" fill="#7dcf4e" d="M 36.5,115.5 C 38.1172,116.038 39.7839,116.371 41.5,116.5C 42.3065,117.728 43.3065,118.728 44.5,119.5C 42.396,119.201 40.396,119.534 38.5,120.5C 39.2427,121.182 39.9094,121.849 40.5,122.5C 39.1667,122.5 37.8333,122.5 36.5,122.5C 35.3065,121.728 34.3065,120.728 33.5,119.5C 34.5,119.5 35.5,119.5 36.5,119.5C 36.5,118.167 36.5,116.833 36.5,115.5 Z"/></g>
<g><path style="opacity:0.804" fill="#b5df9f" d="M 44.5,116.5 C 46.403,116.796 48.0697,117.463 49.5,118.5C 47.302,118.88 45.6354,118.213 44.5,116.5 Z"/></g>
<g><path style="opacity:0.061" fill="#f6feea" d="M 43.5,116.5 C 43.5,116.167 43.5,115.833 43.5,115.5C 51.3599,117.219 59.3599,117.885 67.5,117.5C 67.5,117.833 67.5,118.167 67.5,118.5C 66.5084,118.328 65.8417,118.662 65.5,119.5C 60.1301,119.608 54.7968,119.275 49.5,118.5C 48.0697,117.463 46.403,116.796 44.5,116.5C 44.1667,116.5 43.8333,116.5 43.5,116.5 Z"/></g>
<g><path style="opacity:1" fill="#7fd04d" d="M 81.5,116.5 C 83.3464,116.222 84.6798,116.889 85.5,118.5C 83.6957,119.768 81.6957,120.435 79.5,120.5C 77.5,120.5 75.5,120.5 73.5,120.5C 72.1667,120.833 70.8333,121.167 69.5,121.5C 69.5,120.833 69.5,120.167 69.5,119.5C 73.7207,119.314 77.7207,118.314 81.5,116.5 Z"/></g>
<g><path style="opacity:1" fill="#7fcf51" d="M 87.5,113.5 C 88.8333,115.167 88.8333,116.833 87.5,118.5C 87.5,118.833 87.5,119.167 87.5,119.5C 84.6061,120.256 82.6061,121.923 81.5,124.5C 81.1667,124.5 80.8333,124.5 80.5,124.5C 79.1667,124.5 77.8333,124.5 76.5,124.5C 76.5,124.167 76.5,123.833 76.5,123.5C 77.8734,123.657 79.2068,123.49 80.5,123C 79.7476,122.329 79.4142,121.496 79.5,120.5C 81.6957,120.435 83.6957,119.768 85.5,118.5C 84.6798,116.889 83.3464,116.222 81.5,116.5C 83.5877,115.799 85.5877,114.799 87.5,113.5 Z"/></g>
<g><path style="opacity:1" fill="#98cf74" d="M 24.5,115.5 C 24.8333,115.5 25.1667,115.5 25.5,115.5C 25.8333,115.5 26.1667,115.5 26.5,115.5C 28.1209,117.942 30.4542,119.275 33.5,119.5C 34.3065,120.728 35.3065,121.728 36.5,122.5C 35.1667,122.5 33.8333,122.5 32.5,122.5C 31.5084,122.672 30.8417,122.338 30.5,121.5C 30.0269,120.094 29.0269,119.427 27.5,119.5C 26.5,118.167 25.5,116.833 24.5,115.5 Z"/></g>
<g><path style="opacity:1" fill="#7bd24a" d="M 44.5,119.5 C 45.1667,119.5 45.8333,119.5 46.5,119.5C 45.3157,120.688 45.3157,121.855 46.5,123C 45.2068,123.49 43.8734,123.657 42.5,123.5C 41.5084,123.672 40.8417,123.338 40.5,122.5C 39.9094,121.849 39.2427,121.182 38.5,120.5C 40.396,119.534 42.396,119.201 44.5,119.5 Z"/></g>
<g><path style="opacity:1" fill="#8dca68" d="M 41.5,116.5 C 42.1667,116.5 42.8333,116.5 43.5,116.5C 43.8333,116.5 44.1667,116.5 44.5,116.5C 45.6354,118.213 47.302,118.88 49.5,118.5C 54.7968,119.275 60.1301,119.608 65.5,119.5C 61.7016,120.483 57.7016,120.817 53.5,120.5C 51.139,120.326 48.8056,119.993 46.5,119.5C 45.8333,119.5 45.1667,119.5 44.5,119.5C 43.3065,118.728 42.3065,117.728 41.5,116.5 Z"/></g>
<g><path style="opacity:0.075" fill="#edfbdd" d="M 94.5,118.5 C 88.2167,123.937 80.8834,127.27 72.5,128.5C 72.1667,128.5 71.8333,128.5 71.5,128.5C 74.3448,126.776 77.3448,125.442 80.5,124.5C 80.8333,124.5 81.1667,124.5 81.5,124.5C 84.7569,123.231 87.7569,121.564 90.5,119.5C 91.7079,118.766 93.0413,118.433 94.5,118.5 Z"/></g>
<g><path style="opacity:0.098" fill="#f9ffe5" d="M 27.5,119.5 C 29.0269,119.427 30.0269,120.094 30.5,121.5C 28.9731,121.573 27.9731,120.906 27.5,119.5 Z"/></g>
<g><path style="opacity:1" fill="#7cd14f" d="M 46.5,119.5 C 48.8056,119.993 51.139,120.326 53.5,120.5C 53.5,121.167 53.8333,121.5 54.5,121.5C 54.5,121.833 54.5,122.167 54.5,122.5C 52.8828,121.962 51.2161,121.629 49.5,121.5C 49.5,122.5 49.5,123.5 49.5,124.5C 47.8333,124.5 46.1667,124.5 44.5,124.5C 43.5084,124.672 42.8417,124.338 42.5,123.5C 43.8734,123.657 45.2068,123.49 46.5,123C 45.3157,121.855 45.3157,120.688 46.5,119.5 Z"/></g>
<g><path style="opacity:1" fill="#82cb58" d="M 65.5,119.5 C 66.8333,119.5 68.1667,119.5 69.5,119.5C 69.5,120.167 69.5,120.833 69.5,121.5C 68.8333,121.5 68.1667,121.5 67.5,121.5C 63.1667,121.5 58.8333,121.5 54.5,121.5C 53.8333,121.5 53.5,121.167 53.5,120.5C 57.7016,120.817 61.7016,120.483 65.5,119.5 Z"/></g>
<g><path style="opacity:1" fill="#8bc969" d="M 87.5,119.5 C 88.5,119.5 89.5,119.5 90.5,119.5C 87.7569,121.564 84.7569,123.231 81.5,124.5C 82.6061,121.923 84.6061,120.256 87.5,119.5 Z"/></g>
<g><path style="opacity:1" fill="#7cd14b" d="M 73.5,120.5 C 72.9423,121.79 71.9423,122.623 70.5,123C 72.4727,123.495 74.4727,123.662 76.5,123.5C 76.5,123.833 76.5,124.167 76.5,124.5C 72.8641,125.326 69.1974,125.992 65.5,126.5C 62.8333,126.5 60.1667,126.5 57.5,126.5C 57.5,125.5 57.5,124.5 57.5,123.5C 60.178,122.382 62.8447,122.382 65.5,123.5C 66.7133,123.253 67.38,122.586 67.5,121.5C 68.1667,121.5 68.8333,121.5 69.5,121.5C 70.8333,121.167 72.1667,120.833 73.5,120.5 Z"/></g>
<g><path style="opacity:1" fill="#7bd34a" d="M 73.5,120.5 C 75.5,120.5 77.5,120.5 79.5,120.5C 79.4142,121.496 79.7476,122.329 80.5,123C 79.2068,123.49 77.8734,123.657 76.5,123.5C 74.4727,123.662 72.4727,123.495 70.5,123C 71.9423,122.623 72.9423,121.79 73.5,120.5 Z"/></g>
<g><path style="opacity:0.843" fill="#d6f0c1" d="M 32.5,122.5 C 33.8333,122.5 35.1667,122.5 36.5,122.5C 39.3399,124.915 42.6733,126.248 46.5,126.5C 46.5,126.833 46.5,127.167 46.5,127.5C 45.8333,127.5 45.1667,127.5 44.5,127.5C 39.9831,126.903 35.9831,125.237 32.5,122.5 Z"/></g>
<g><path style="opacity:1" fill="#8bc762" d="M 36.5,122.5 C 37.8333,122.5 39.1667,122.5 40.5,122.5C 40.8417,123.338 41.5084,123.672 42.5,123.5C 42.8417,124.338 43.5084,124.672 44.5,124.5C 45.1667,125.167 45.8333,125.833 46.5,126.5C 42.6733,126.248 39.3399,124.915 36.5,122.5 Z"/></g>
<g><path style="opacity:1" fill="#7dd248" d="M 54.5,122.5 C 55.1667,122.833 55.8333,123.167 56.5,123.5C 54.3926,124.468 52.0593,124.802 49.5,124.5C 49.5,123.5 49.5,122.5 49.5,121.5C 51.2161,121.629 52.8828,121.962 54.5,122.5 Z"/></g>
<g><path style="opacity:1" fill="#7ecf4e" d="M 54.5,122.5 C 54.5,122.167 54.5,121.833 54.5,121.5C 58.8333,121.5 63.1667,121.5 67.5,121.5C 67.38,122.586 66.7133,123.253 65.5,123.5C 62.8447,122.382 60.178,122.382 57.5,123.5C 57.1667,123.5 56.8333,123.5 56.5,123.5C 55.8333,123.167 55.1667,122.833 54.5,122.5 Z"/></g>
<g><path style="opacity:1" fill="#80ce53" d="M 56.5,123.5 C 56.8333,123.5 57.1667,123.5 57.5,123.5C 57.5,124.5 57.5,125.5 57.5,126.5C 60.1667,126.5 62.8333,126.5 65.5,126.5C 60.3595,127.488 55.0262,127.821 49.5,127.5C 48.5,127.5 47.5,127.5 46.5,127.5C 46.5,127.167 46.5,126.833 46.5,126.5C 45.8333,125.833 45.1667,125.167 44.5,124.5C 46.1667,124.5 47.8333,124.5 49.5,124.5C 52.0593,124.802 54.3926,124.468 56.5,123.5 Z"/></g>
<g><path style="opacity:1" fill="#90ca6e" d="M 76.5,124.5 C 77.8333,124.5 79.1667,124.5 80.5,124.5C 77.3448,125.442 74.3448,126.776 71.5,128.5C 63.9809,128.825 56.6476,128.492 49.5,127.5C 55.0262,127.821 60.3595,127.488 65.5,126.5C 69.1974,125.992 72.8641,125.326 76.5,124.5 Z"/></g>
<g><path style="opacity:0.082" fill="#fafff0" d="M 44.5,127.5 C 45.1667,127.5 45.8333,127.5 46.5,127.5C 47.5,127.5 48.5,127.5 49.5,127.5C 56.6476,128.492 63.9809,128.825 71.5,128.5C 71.8333,128.5 72.1667,128.5 72.5,128.5C 68.6812,129.166 64.6812,129.499 60.5,129.5C 54.9024,129.724 49.569,129.057 44.5,127.5 Z"/></g>
</svg>
